<svg width="1000" height="700" viewBox="0 0 1000 700" fill="none" xmlns="http://www.w3.org/2000/svg">
<rect width="1000" height="700" fill="#F2F2F2"/>
<path d="M898 368V668" stroke="#F42500"/>
<path d="M895 368H901" stroke="#F42500"/>
<path d="M895 668H901" stroke="#F42500"/>
<rect x="822" y="508" width="69" height="20" rx="3.5" fill="#D3D3D3"/>
<path d="M830.426 523.129C829.737 523.129 829.123 523.011 828.584 522.774C828.049 522.534 827.626 522.204 827.315 521.786C827.007 521.364 826.849 520.878 826.839 520.327H828.852C828.864 520.558 828.94 520.761 829.078 520.936C829.22 521.109 829.408 521.243 829.642 521.338C829.875 521.434 830.139 521.481 830.431 521.481C830.736 521.481 831.005 521.427 831.239 521.32C831.473 521.212 831.656 521.063 831.788 520.872C831.921 520.681 831.987 520.461 831.987 520.212C831.987 519.959 831.916 519.736 831.774 519.542C831.636 519.345 831.436 519.191 831.174 519.081C830.916 518.97 830.608 518.914 830.251 518.914H829.369V517.446H830.251C830.553 517.446 830.819 517.394 831.05 517.289C831.283 517.185 831.465 517.04 831.594 516.856C831.724 516.668 831.788 516.449 831.788 516.2C831.788 515.963 831.731 515.755 831.617 515.577C831.507 515.395 831.35 515.254 831.146 515.152C830.946 515.05 830.713 515 830.445 515C830.174 515 829.926 515.049 829.702 515.147C829.477 515.243 829.297 515.38 829.161 515.558C829.026 515.737 828.954 515.946 828.944 516.186H827.029C827.038 515.641 827.193 515.161 827.495 514.746C827.796 514.33 828.203 514.006 828.714 513.772C829.228 513.535 829.808 513.416 830.454 513.416C831.106 513.416 831.677 513.535 832.167 513.772C832.656 514.009 833.036 514.329 833.307 514.732C833.581 515.132 833.716 515.581 833.713 516.08C833.716 516.609 833.552 517.051 833.219 517.405C832.89 517.759 832.461 517.983 831.931 518.079V518.153C832.627 518.242 833.156 518.484 833.519 518.878C833.886 519.268 834.067 519.758 834.064 520.346C834.067 520.884 833.912 521.363 833.598 521.781C833.287 522.2 832.858 522.529 832.31 522.769C831.762 523.009 831.134 523.129 830.426 523.129ZM839.468 523.208C838.674 523.205 837.991 523.009 837.418 522.622C836.849 522.234 836.41 521.672 836.103 520.936C835.798 520.201 835.647 519.316 835.65 518.282C835.65 517.251 835.803 516.372 836.107 515.646C836.415 514.92 836.854 514.367 837.423 513.989C837.995 513.607 838.677 513.416 839.468 513.416C840.259 513.416 840.939 513.607 841.508 513.989C842.081 514.37 842.521 514.924 842.829 515.651C843.137 516.374 843.289 517.251 843.286 518.282C843.286 519.319 843.132 520.206 842.824 520.941C842.52 521.677 842.082 522.238 841.513 522.626C840.944 523.014 840.262 523.208 839.468 523.208ZM839.468 521.55C840.01 521.55 840.442 521.278 840.765 520.733C841.088 520.189 841.248 519.372 841.245 518.282C841.245 517.565 841.171 516.968 841.024 516.491C840.879 516.014 840.673 515.655 840.405 515.415C840.14 515.175 839.828 515.055 839.468 515.055C838.929 515.055 838.499 515.324 838.175 515.863C837.852 516.402 837.689 517.208 837.686 518.282C837.686 519.008 837.758 519.615 837.903 520.101C838.051 520.584 838.258 520.947 838.526 521.19C838.794 521.43 839.108 521.55 839.468 521.55ZM848.678 523.208C847.884 523.205 847.201 523.009 846.628 522.622C846.059 522.234 845.621 521.672 845.313 520.936C845.008 520.201 844.857 519.316 844.86 518.282C844.86 517.251 845.013 516.372 845.317 515.646C845.625 514.92 846.064 514.367 846.633 513.989C847.206 513.607 847.887 513.416 848.678 513.416C849.469 513.416 850.149 513.607 850.719 513.989C851.291 514.37 851.731 514.924 852.039 515.651C852.347 516.374 852.499 517.251 852.496 518.282C852.496 519.319 852.342 520.206 852.034 520.941C851.73 521.677 851.293 522.238 850.723 522.626C850.154 523.014 849.472 523.208 848.678 523.208ZM848.678 521.55C849.22 521.55 849.652 521.278 849.975 520.733C850.299 520.189 850.459 519.372 850.456 518.282C850.456 517.565 850.382 516.968 850.234 516.491C850.089 516.014 849.883 515.655 849.615 515.415C849.351 515.175 849.038 515.055 848.678 515.055C848.14 515.055 847.709 515.324 847.386 515.863C847.062 516.402 846.899 517.208 846.896 518.282C846.896 519.008 846.969 519.615 847.113 520.101C847.261 520.584 847.469 520.947 847.736 521.19C848.004 521.43 848.318 521.55 848.678 521.55ZM859.915 517.493V519.053H853.415V517.493H859.915ZM860.798 521.338V519.764L864.745 513.546H866.103V515.724H865.299L862.811 519.662V519.736H868.42V521.338H860.798ZM865.336 523V520.858L865.373 520.161V513.546H867.247V523H865.336ZM873.465 523.129C872.813 523.129 872.231 523.009 871.72 522.769C871.212 522.529 870.809 522.198 870.51 521.777C870.212 521.355 870.057 520.872 870.044 520.327H871.983C872.005 520.693 872.159 520.99 872.445 521.218C872.731 521.446 873.071 521.56 873.465 521.56C873.779 521.56 874.056 521.49 874.296 521.352C874.539 521.21 874.728 521.015 874.864 520.766C875.002 520.513 875.072 520.224 875.072 519.898C875.072 519.565 875.001 519.273 874.859 519.021C874.721 518.768 874.528 518.571 874.282 518.43C874.036 518.288 873.754 518.216 873.437 518.213C873.16 518.213 872.891 518.27 872.629 518.384C872.371 518.497 872.169 518.653 872.025 518.85L870.247 518.531L870.695 513.546H876.475V515.18H872.343L872.099 517.548H872.154C872.32 517.314 872.571 517.12 872.906 516.966C873.242 516.812 873.617 516.736 874.033 516.736C874.602 516.736 875.11 516.869 875.556 517.137C876.003 517.405 876.355 517.773 876.613 518.24C876.872 518.705 877 519.241 876.997 519.847C877 520.484 876.852 521.05 876.553 521.546C876.258 522.038 875.844 522.426 875.312 522.709C874.782 522.989 874.167 523.129 873.465 523.129ZM882.358 523.208C881.564 523.205 880.881 523.009 880.308 522.622C879.739 522.234 879.3 521.672 878.992 520.936C878.688 520.201 878.537 519.316 878.54 518.282C878.54 517.251 878.692 516.372 878.997 515.646C879.305 514.92 879.743 514.367 880.313 513.989C880.885 513.607 881.567 513.416 882.358 513.416C883.149 513.416 883.829 513.607 884.398 513.989C884.971 514.37 885.411 514.924 885.719 515.651C886.026 516.374 886.179 517.251 886.176 518.282C886.176 519.319 886.022 520.206 885.714 520.941C885.409 521.677 884.972 522.238 884.403 522.626C883.834 523.014 883.152 523.208 882.358 523.208ZM882.358 521.55C882.9 521.55 883.332 521.278 883.655 520.733C883.978 520.189 884.138 519.372 884.135 518.282C884.135 517.565 884.061 516.968 883.914 516.491C883.769 516.014 883.563 515.655 883.295 515.415C883.03 515.175 882.718 515.055 882.358 515.055C881.819 515.055 881.388 515.324 881.065 515.863C880.742 516.402 880.579 517.208 880.576 518.282C880.576 519.008 880.648 519.615 880.793 520.101C880.941 520.584 881.148 520.947 881.416 521.19C881.684 521.43 881.998 521.55 882.358 521.55Z" fill="black"/>
<path d="M717 368V158C717 158 654.5 68 499.5 68C344.5 68 282 158 282 158V368H717Z" fill="white"/>
<path d="M717 158H720C720 157.388 719.813 156.791 719.464 156.289L717 158ZM717 368V371C718.657 371 720 369.657 720 368H717ZM282 368H279C279 369.657 280.343 371 282 371V368ZM282 158L279.536 156.289C279.187 156.791 279 157.388 279 158H282ZM714 158V368H720V158H714ZM717 365H282V371H717V365ZM285 368V158H279V368H285ZM282 158C284.464 159.711 284.463 159.712 284.463 159.713C284.463 159.713 284.463 159.713 284.463 159.713C284.464 159.712 284.465 159.71 284.468 159.706C284.473 159.699 284.482 159.686 284.494 159.669C284.52 159.633 284.56 159.576 284.616 159.498C284.728 159.343 284.902 159.106 285.138 158.792C285.61 158.164 286.332 157.229 287.311 156.032C289.27 153.636 292.256 150.188 296.329 146.039C304.474 137.74 316.959 126.638 334.247 115.524C368.801 93.3107 422.618 71 499.5 71V65C421.382 65 366.449 87.6894 331.003 110.476C313.291 121.863 300.463 133.26 292.046 141.836C287.838 146.124 284.73 149.708 282.666 152.234C281.633 153.497 280.861 154.496 280.342 155.186C280.082 155.532 279.886 155.8 279.752 155.985C279.685 156.078 279.634 156.15 279.598 156.201C279.58 156.227 279.565 156.247 279.555 156.261C279.55 156.269 279.546 156.275 279.543 156.279C279.541 156.281 279.539 156.284 279.539 156.285C279.537 156.287 279.536 156.289 282 158ZM499.5 71C576.382 71 630.199 93.3107 664.753 115.524C682.041 126.638 694.526 137.74 702.671 146.039C706.744 150.188 709.73 153.636 711.689 156.032C712.668 157.229 713.39 158.164 713.862 158.792C714.098 159.106 714.272 159.343 714.384 159.498C714.44 159.576 714.48 159.633 714.506 159.669C714.518 159.686 714.527 159.699 714.532 159.706C714.535 159.71 714.536 159.712 714.537 159.713C714.537 159.713 714.537 159.713 714.537 159.713C714.537 159.712 714.536 159.711 717 158C719.464 156.289 719.463 156.287 719.461 156.285C719.461 156.284 719.459 156.281 719.457 156.279C719.454 156.275 719.45 156.269 719.445 156.261C719.435 156.247 719.42 156.227 719.402 156.201C719.366 156.15 719.315 156.078 719.248 155.985C719.114 155.8 718.918 155.532 718.658 155.186C718.139 154.496 717.367 153.497 716.334 152.234C714.27 149.708 711.162 146.124 706.954 141.836C698.536 133.26 685.709 121.863 667.997 110.476C632.551 87.6894 577.618 65 499.5 65V71Z" fill="black"/>
<path d="M125 668L875 668" stroke="black" stroke-width="12"/>
<path d="M125 368L875 368" stroke="black" stroke-width="6"/>
<path d="M407 343V393" stroke="black" stroke-width="6"/>
<path d="M282 353V383" stroke="black" stroke-width="6"/>
<path d="M592 343V393" stroke="black" stroke-width="6"/>
<path d="M717 353V383" stroke="black" stroke-width="6"/>
<path d="M259 68V368" stroke="#F42500"/>
<path d="M256 68H262" stroke="#F42500"/>
<path d="M256 368H262" stroke="#F42500"/>
<rect x="217" y="208" width="35" height="20" rx="3.5" fill="#D3D3D3"/>
<path d="M225.266 223.129C224.577 223.129 223.963 223.011 223.424 222.774C222.889 222.534 222.465 222.204 222.155 221.786C221.847 221.364 221.688 220.878 221.679 220.327H223.692C223.704 220.558 223.78 220.761 223.918 220.936C224.06 221.109 224.247 221.243 224.481 221.338C224.715 221.433 224.978 221.481 225.271 221.481C225.575 221.481 225.845 221.427 226.079 221.32C226.313 221.212 226.496 221.063 226.628 220.872C226.76 220.681 226.827 220.461 226.827 220.212C226.827 219.959 226.756 219.736 226.614 219.542C226.476 219.345 226.276 219.191 226.014 219.081C225.755 218.97 225.448 218.914 225.091 218.914H224.209V217.446H225.091C225.392 217.446 225.659 217.394 225.889 217.289C226.123 217.185 226.305 217.04 226.434 216.855C226.563 216.668 226.628 216.449 226.628 216.2C226.628 215.963 226.571 215.755 226.457 215.577C226.346 215.395 226.189 215.254 225.986 215.152C225.786 215.05 225.552 215 225.285 215C225.014 215 224.766 215.049 224.541 215.147C224.317 215.243 224.137 215.38 224.001 215.558C223.866 215.737 223.793 215.946 223.784 216.186H221.868C221.878 215.641 222.033 215.161 222.335 214.746C222.636 214.33 223.043 214.006 223.553 213.772C224.067 213.535 224.648 213.416 225.294 213.416C225.946 213.416 226.517 213.535 227.007 213.772C227.496 214.009 227.876 214.329 228.147 214.732C228.421 215.132 228.556 215.581 228.553 216.08C228.556 216.609 228.392 217.051 228.059 217.405C227.73 217.759 227.3 217.983 226.771 218.079V218.153C227.467 218.242 227.996 218.484 228.359 218.877C228.725 219.268 228.907 219.758 228.904 220.346C228.907 220.884 228.752 221.363 228.438 221.781C228.127 222.2 227.697 222.529 227.15 222.769C226.602 223.009 225.974 223.129 225.266 223.129ZM234.308 223.208C233.514 223.205 232.831 223.009 232.258 222.621C231.689 222.234 231.25 221.672 230.942 220.936C230.638 220.201 230.487 219.316 230.49 218.282C230.49 217.251 230.642 216.372 230.947 215.646C231.255 214.92 231.693 214.367 232.263 213.989C232.835 213.607 233.517 213.416 234.308 213.416C235.099 213.416 235.779 213.607 236.348 213.989C236.921 214.37 237.361 214.924 237.669 215.651C237.976 216.374 238.129 217.251 238.126 218.282C238.126 219.319 237.972 220.205 237.664 220.941C237.359 221.677 236.922 222.238 236.353 222.626C235.784 223.014 235.102 223.208 234.308 223.208ZM234.308 221.55C234.85 221.55 235.282 221.278 235.605 220.733C235.928 220.189 236.088 219.371 236.085 218.282C236.085 217.565 236.011 216.968 235.864 216.491C235.719 216.014 235.513 215.655 235.245 215.415C234.98 215.175 234.668 215.055 234.308 215.055C233.769 215.055 233.338 215.324 233.015 215.863C232.692 216.402 232.529 217.208 232.526 218.282C232.526 219.008 232.598 219.615 232.743 220.101C232.891 220.584 233.098 220.947 233.366 221.19C233.634 221.43 233.948 221.55 234.308 221.55ZM243.518 223.208C242.724 223.205 242.041 223.009 241.468 222.621C240.899 222.234 240.46 221.672 240.153 220.936C239.848 220.201 239.697 219.316 239.7 218.282C239.7 217.251 239.853 216.372 240.157 215.646C240.465 214.92 240.904 214.367 241.473 213.989C242.045 213.607 242.727 213.416 243.518 213.416C244.309 213.416 244.989 213.607 245.559 213.989C246.131 214.37 246.571 214.924 246.879 215.651C247.187 216.374 247.339 217.251 247.336 218.282C247.336 219.319 247.182 220.205 246.874 220.941C246.57 221.677 246.133 222.238 245.563 222.626C244.994 223.014 244.312 223.208 243.518 223.208ZM243.518 221.55C244.06 221.55 244.492 221.278 244.815 220.733C245.138 220.189 245.298 219.371 245.295 218.282C245.295 217.565 245.222 216.968 245.074 216.491C244.929 216.014 244.723 215.655 244.455 215.415C244.191 215.175 243.878 215.055 243.518 215.055C242.979 215.055 242.549 215.324 242.225 215.863C241.902 216.402 241.739 217.208 241.736 218.282C241.736 219.008 241.808 219.615 241.953 220.101C242.101 220.584 242.309 220.947 242.576 221.19C242.844 221.43 243.158 221.55 243.518 221.55Z" fill="black"/>
<path d="M282 45H717" stroke="#F42500"/>
<path d="M282 42V48" stroke="#F42500"/>
<path d="M717 42V48" stroke="#F42500"/>
<rect x="482" y="18" width="35" height="20" rx="3.5" fill="#D3D3D3"/>
<path d="M486.984 31.3381V29.7638L490.931 23.5455H492.288V25.7244H491.485L488.997 29.6623V29.7362H494.606V31.3381H486.984ZM491.522 33V30.858L491.559 30.1609V23.5455H493.433V33H491.522ZM499.692 33.1293C499.003 33.1293 498.389 33.0108 497.85 32.7738C497.315 32.5337 496.891 32.2044 496.581 31.7859C496.273 31.3642 496.114 30.878 496.105 30.3271H498.118C498.13 30.5579 498.206 30.761 498.344 30.9364C498.486 31.1088 498.673 31.2427 498.907 31.3381C499.141 31.4335 499.404 31.4812 499.697 31.4812C500.001 31.4812 500.271 31.4273 500.505 31.3196C500.739 31.2119 500.922 31.0626 501.054 30.8718C501.186 30.681 501.253 30.4609 501.253 30.2116C501.253 29.9593 501.182 29.7362 501.04 29.5423C500.902 29.3453 500.702 29.1914 500.44 29.0806C500.182 28.9698 499.874 28.9144 499.517 28.9144H498.635V27.4464H499.517C499.818 27.4464 500.085 27.3941 500.315 27.2894C500.549 27.1848 500.731 27.0401 500.86 26.8555C500.989 26.6677 501.054 26.4492 501.054 26.1999C501.054 25.9629 500.997 25.7552 500.883 25.5767C500.772 25.3951 500.615 25.2536 500.412 25.152C500.212 25.0504 499.978 24.9996 499.711 24.9996C499.44 24.9996 499.192 25.0489 498.967 25.1474C498.743 25.2428 498.563 25.3797 498.427 25.5582C498.292 25.7367 498.22 25.946 498.21 26.1861H496.294C496.304 25.6413 496.459 25.1612 496.761 24.7457C497.062 24.3303 497.469 24.0056 497.979 23.7717C498.493 23.5347 499.074 23.4162 499.72 23.4162C500.372 23.4162 500.943 23.5347 501.433 23.7717C501.922 24.0086 502.302 24.3287 502.573 24.7319C502.847 25.132 502.982 25.5813 502.979 26.0799C502.982 26.6093 502.818 27.0509 502.485 27.4048C502.156 27.7588 501.726 27.9834 501.197 28.0788V28.1527C501.893 28.242 502.422 28.4835 502.785 28.8775C503.151 29.2683 503.333 29.7577 503.33 30.3455C503.333 30.8841 503.178 31.3627 502.864 31.7812C502.553 32.1998 502.124 32.5291 501.576 32.7692C501.028 33.0092 500.4 33.1293 499.692 33.1293ZM508.48 33.1293C507.827 33.1293 507.246 33.0092 506.735 32.7692C506.227 32.5291 505.824 32.1983 505.525 31.7766C505.227 31.355 505.071 30.8718 505.059 30.3271H506.998C507.02 30.6933 507.173 30.9903 507.46 31.218C507.746 31.4458 508.086 31.5597 508.48 31.5597C508.794 31.5597 509.071 31.4904 509.311 31.3519C509.554 31.2103 509.743 31.0149 509.879 30.7656C510.017 30.5133 510.086 30.224 510.086 29.8977C510.086 29.5653 510.016 29.273 509.874 29.0206C509.736 28.7682 509.543 28.5713 509.297 28.4297C509.051 28.2881 508.769 28.2158 508.452 28.2127C508.175 28.2127 507.906 28.2696 507.644 28.3835C507.386 28.4974 507.184 28.6528 507.04 28.8498L505.262 28.5312L505.71 23.5455H511.49V25.1797H507.358L507.113 27.5479H507.169C507.335 27.314 507.586 27.1201 507.921 26.9663C508.257 26.8124 508.632 26.7354 509.048 26.7354C509.617 26.7354 510.125 26.8693 510.571 27.1371C511.017 27.4048 511.37 27.7726 511.628 28.2404C511.887 28.7051 512.015 29.2406 512.012 29.8469C512.015 30.484 511.867 31.0503 511.568 31.5458C511.273 32.0382 510.859 32.426 510.327 32.7092C509.797 32.9892 509.182 33.1293 508.48 33.1293Z" fill="black"/>
<path d="M740 158V368" stroke="#F42500"/>
<path d="M737 158H743" stroke="#F42500"/>
<path d="M737 368H743" stroke="#F42500"/>
<rect x="747" y="253" width="33" height="20" rx="3.5" fill="#D3D3D3"/>
<path d="M752.257 268V266.56L755.622 263.444C755.908 263.167 756.149 262.917 756.342 262.696C756.539 262.474 756.689 262.257 756.79 262.045C756.892 261.829 756.943 261.597 756.943 261.348C756.943 261.071 756.879 260.832 756.753 260.632C756.627 260.429 756.455 260.274 756.236 260.166C756.018 260.055 755.77 260 755.493 260C755.204 260 754.951 260.058 754.736 260.175C754.52 260.292 754.354 260.46 754.237 260.678C754.12 260.897 754.062 261.157 754.062 261.459H752.164C752.164 260.84 752.305 260.303 752.585 259.847C752.865 259.392 753.257 259.039 753.762 258.79C754.267 258.541 754.848 258.416 755.507 258.416C756.184 258.416 756.773 258.536 757.275 258.776C757.78 259.013 758.172 259.343 758.452 259.764C758.732 260.186 758.872 260.669 758.872 261.214C758.872 261.571 758.801 261.923 758.66 262.271C758.521 262.619 758.274 263.005 757.917 263.43C757.56 263.851 757.056 264.358 756.407 264.949L755.027 266.301V266.366H758.997V268H752.257ZM764.819 258.546V268H762.82V260.443H762.764L760.599 261.8V260.027L762.94 258.546H764.819ZM771.033 268.208C770.239 268.205 769.555 268.009 768.983 267.622C768.414 267.234 767.975 266.672 767.667 265.936C767.363 265.201 767.212 264.316 767.215 263.282C767.215 262.251 767.367 261.372 767.672 260.646C767.98 259.92 768.418 259.367 768.988 258.989C769.56 258.607 770.242 258.416 771.033 258.416C771.824 258.416 772.504 258.607 773.073 258.989C773.646 259.37 774.086 259.924 774.393 260.651C774.701 261.374 774.854 262.251 774.851 263.282C774.851 264.319 774.697 265.206 774.389 265.941C774.084 266.677 773.647 267.238 773.078 267.626C772.508 268.014 771.827 268.208 771.033 268.208ZM771.033 266.55C771.574 266.55 772.007 266.278 772.33 265.733C772.653 265.189 772.813 264.372 772.81 263.282C772.81 262.565 772.736 261.968 772.588 261.491C772.444 261.014 772.238 260.655 771.97 260.415C771.705 260.175 771.393 260.055 771.033 260.055C770.494 260.055 770.063 260.324 769.74 260.863C769.417 261.402 769.254 262.208 769.251 263.282C769.251 264.008 769.323 264.615 769.468 265.101C769.615 265.584 769.823 265.947 770.091 266.19C770.359 266.43 770.673 266.55 771.033 266.55Z" fill="black"/>
<g clip-path="url(#clip0_1_2081)">
<rect x="467.035" y="217.906" width="35" height="20" rx="3.5" transform="rotate(-15 467.035 217.906)" fill="#D3D3D3"/>
<path d="M478.936 230.38C478.27 230.559 477.646 230.603 477.064 230.514C476.485 230.42 475.991 230.212 475.582 229.888C475.176 229.56 474.897 229.132 474.745 228.602L476.69 228.081C476.761 228.301 476.887 228.477 477.066 228.611C477.247 228.741 477.463 228.822 477.714 228.853C477.964 228.885 478.231 228.863 478.513 228.787C478.808 228.708 479.054 228.586 479.252 228.422C479.45 228.257 479.588 228.066 479.667 227.847C479.745 227.629 479.752 227.399 479.688 227.158C479.622 226.914 479.496 226.717 479.309 226.566C479.124 226.412 478.891 226.315 478.61 226.276C478.332 226.236 478.02 226.262 477.675 226.354L476.823 226.583L476.444 225.165L477.295 224.936C477.587 224.858 477.83 224.739 478.026 224.578C478.225 224.416 478.363 224.23 478.44 224.018C478.516 223.803 478.522 223.575 478.458 223.334C478.396 223.106 478.287 222.92 478.131 222.777C477.977 222.63 477.789 222.534 477.566 222.488C477.347 222.442 477.108 222.453 476.849 222.523C476.588 222.593 476.361 222.705 476.17 222.858C475.977 223.008 475.839 223.187 475.754 223.394C475.67 223.602 475.654 223.823 475.707 224.057L473.857 224.553C473.724 224.024 473.75 223.52 473.934 223.041C474.118 222.562 474.426 222.143 474.859 221.785C475.294 221.423 475.824 221.158 476.448 220.991C477.079 220.822 477.661 220.789 478.195 220.891C478.729 220.993 479.179 221.204 479.545 221.523C479.913 221.839 480.16 222.238 480.286 222.72C480.426 223.231 480.381 223.7 480.152 224.128C479.925 224.555 479.569 224.883 479.082 225.112L479.101 225.184C479.796 225.09 480.37 225.186 480.823 225.473C481.278 225.755 481.58 226.181 481.729 226.75C481.871 227.269 481.845 227.772 481.65 228.257C481.458 228.742 481.129 229.171 480.662 229.545C480.195 229.919 479.619 230.197 478.936 230.38ZM487.689 228.116C486.922 228.318 486.211 228.306 485.558 228.08C484.907 227.853 484.338 227.424 483.851 226.793C483.366 226.161 482.991 225.346 482.727 224.346C482.46 223.35 482.38 222.462 482.486 221.682C482.595 220.9 482.876 220.253 483.328 219.74C483.782 219.223 484.391 218.863 485.155 218.658C485.919 218.453 486.626 218.461 487.274 218.683C487.926 218.903 488.495 219.324 488.98 219.946C489.464 220.565 489.838 221.373 490.102 222.37C490.371 223.372 490.451 224.268 490.345 225.058C490.241 225.847 489.964 226.503 489.514 227.025C489.065 227.547 488.456 227.91 487.689 228.116ZM487.26 226.515C487.784 226.375 488.131 226 488.302 225.39C488.473 224.78 488.416 223.949 488.131 222.898C487.946 222.205 487.72 221.648 487.454 221.225C487.191 220.802 486.899 220.509 486.578 220.346C486.26 220.183 485.927 220.148 485.579 220.241C485.059 220.38 484.713 220.752 484.54 221.356C484.367 221.96 484.418 222.781 484.693 223.819C484.881 224.521 485.108 225.088 485.374 225.52C485.641 225.948 485.936 226.245 486.258 226.411C486.578 226.573 486.913 226.608 487.26 226.515ZM496.586 225.732C495.818 225.935 495.107 225.923 494.454 225.696C493.804 225.469 493.235 225.04 492.747 224.409C492.263 223.778 491.888 222.962 491.623 221.962C491.356 220.966 491.276 220.078 491.382 219.298C491.492 218.517 491.772 217.869 492.224 217.356C492.678 216.84 493.288 216.479 494.052 216.274C494.816 216.069 495.522 216.078 496.171 216.299C496.822 216.519 497.391 216.941 497.876 217.563C498.361 218.181 498.735 218.989 498.999 219.986C499.267 220.988 499.348 221.884 499.241 222.674C499.137 223.463 498.86 224.119 498.411 224.641C497.961 225.163 497.353 225.527 496.586 225.732ZM496.157 224.131C496.68 223.991 497.027 223.616 497.198 223.006C497.37 222.396 497.313 221.566 497.028 220.514C496.842 219.821 496.616 219.264 496.35 218.841C496.087 218.418 495.795 218.125 495.474 217.962C495.156 217.799 494.824 217.764 494.476 217.857C493.955 217.997 493.609 218.368 493.436 218.972C493.263 219.576 493.315 220.397 493.59 221.435C493.778 222.137 494.004 222.704 494.27 223.136C494.538 223.565 494.832 223.862 495.154 224.027C495.475 224.19 495.809 224.224 496.157 224.131Z" fill="black"/>
</g>
<path d="M500 367.778L422.354 78" stroke="#F42500" stroke-dasharray="6 3"/>
<path d="M592 416H717" stroke="#F42500"/>
<path d="M592 413V419" stroke="#F42500"/>
<path d="M717 413V419" stroke="#F42500"/>
<rect x="638.5" y="423" width="32" height="20" rx="3.5" fill="#D3D3D3"/>
<path d="M647.656 428.546V438H645.657V430.443H645.601L643.436 431.8V430.027L645.777 428.546H647.656ZM650.163 438V436.56L653.528 433.444C653.814 433.167 654.055 432.917 654.248 432.696C654.445 432.474 654.595 432.257 654.696 432.045C654.798 431.829 654.849 431.597 654.849 431.348C654.849 431.071 654.785 430.832 654.659 430.632C654.533 430.429 654.361 430.274 654.142 430.166C653.924 430.055 653.676 430 653.399 430C653.11 430 652.857 430.058 652.642 430.175C652.426 430.292 652.26 430.46 652.143 430.678C652.026 430.897 651.968 431.157 651.968 431.459H650.07C650.07 430.84 650.211 430.303 650.491 429.847C650.771 429.392 651.163 429.039 651.668 428.79C652.173 428.541 652.754 428.416 653.413 428.416C654.09 428.416 654.679 428.536 655.181 428.776C655.686 429.013 656.078 429.343 656.358 429.764C656.638 430.186 656.778 430.669 656.778 431.214C656.778 431.571 656.707 431.923 656.566 432.271C656.427 432.619 656.18 433.005 655.823 433.43C655.466 433.851 654.962 434.358 654.313 434.949L652.933 436.301V436.366H656.903V438H650.163ZM662.064 438.129C661.412 438.129 660.83 438.009 660.319 437.769C659.812 437.529 659.408 437.198 659.11 436.777C658.811 436.355 658.656 435.872 658.644 435.327H660.583C660.604 435.693 660.758 435.99 661.044 436.218C661.33 436.446 661.67 436.56 662.064 436.56C662.378 436.56 662.655 436.49 662.895 436.352C663.139 436.21 663.328 436.015 663.463 435.766C663.602 435.513 663.671 435.224 663.671 434.898C663.671 434.565 663.6 434.273 663.459 434.021C663.32 433.768 663.128 433.571 662.882 433.43C662.635 433.288 662.354 433.216 662.037 433.213C661.76 433.213 661.49 433.27 661.229 433.384C660.97 433.497 660.769 433.653 660.624 433.85L658.847 433.531L659.295 428.546H665.074V430.18H660.943L660.698 432.548H660.753C660.92 432.314 661.17 432.12 661.506 431.966C661.841 431.812 662.217 431.736 662.632 431.736C663.202 431.736 663.709 431.869 664.156 432.137C664.602 432.405 664.954 432.773 665.213 433.24C665.471 433.705 665.599 434.241 665.596 434.847C665.599 435.484 665.451 436.05 665.153 436.546C664.857 437.038 664.443 437.426 663.911 437.709C663.382 437.989 662.766 438.129 662.064 438.129Z" fill="black"/>
<path d="M282 416H407" stroke="#F42500"/>
<path d="M282 413V419" stroke="#F42500"/>
<path d="M407 413V419" stroke="#F42500"/>
<rect x="328.5" y="423" width="32" height="20" rx="3.5" fill="#D3D3D3"/>
<path d="M337.656 428.546V438H335.657V430.443H335.601L333.436 431.8V430.027L335.777 428.546H337.656ZM340.163 438V436.56L343.528 433.444C343.814 433.167 344.055 432.917 344.248 432.696C344.445 432.474 344.595 432.257 344.696 432.045C344.798 431.829 344.849 431.597 344.849 431.348C344.849 431.071 344.785 430.832 344.659 430.632C344.533 430.429 344.361 430.274 344.142 430.166C343.924 430.055 343.676 430 343.399 430C343.11 430 342.857 430.058 342.642 430.175C342.426 430.292 342.26 430.46 342.143 430.678C342.026 430.897 341.968 431.157 341.968 431.459H340.07C340.07 430.84 340.211 430.303 340.491 429.847C340.771 429.392 341.163 429.039 341.668 428.79C342.173 428.541 342.754 428.416 343.413 428.416C344.09 428.416 344.679 428.536 345.181 428.776C345.686 429.013 346.078 429.343 346.358 429.764C346.638 430.186 346.778 430.669 346.778 431.214C346.778 431.571 346.707 431.923 346.566 432.271C346.427 432.619 346.18 433.005 345.823 433.43C345.466 433.851 344.962 434.358 344.313 434.949L342.933 436.301V436.366H346.903V438H340.163ZM352.064 438.129C351.412 438.129 350.83 438.009 350.319 437.769C349.812 437.529 349.408 437.198 349.11 436.777C348.811 436.355 348.656 435.872 348.644 435.327H350.583C350.604 435.693 350.758 435.99 351.044 436.218C351.33 436.446 351.67 436.56 352.064 436.56C352.378 436.56 352.655 436.49 352.895 436.352C353.139 436.21 353.328 436.015 353.463 435.766C353.602 435.513 353.671 435.224 353.671 434.898C353.671 434.565 353.6 434.273 353.459 434.021C353.32 433.768 353.128 433.571 352.882 433.43C352.635 433.288 352.354 433.216 352.037 433.213C351.76 433.213 351.49 433.27 351.229 433.384C350.97 433.497 350.769 433.653 350.624 433.85L348.847 433.531L349.295 428.546H355.074V430.18H350.943L350.698 432.548H350.753C350.92 432.314 351.17 432.12 351.506 431.966C351.841 431.812 352.217 431.736 352.632 431.736C353.202 431.736 353.709 431.869 354.156 432.137C354.602 432.405 354.954 432.773 355.213 433.24C355.471 433.705 355.599 434.241 355.596 434.847C355.599 435.484 355.451 436.05 355.153 436.546C354.857 437.038 354.443 437.426 353.911 437.709C353.382 437.989 352.766 438.129 352.064 438.129Z" fill="black"/>
<path d="M407 416H592" stroke="#F42500"/>
<path d="M407 413V419" stroke="#F42500"/>
<path d="M592 413V419" stroke="#F42500"/>
<rect x="483.5" y="423" width="32" height="20" rx="3.5" fill="#D3D3D3"/>
<path d="M492.453 428.546V438H490.454V430.443H490.398L488.233 431.8V430.027L490.574 428.546H492.453ZM498.487 438.129C497.776 438.129 497.143 438.014 496.589 437.783C496.038 437.549 495.606 437.231 495.292 436.827C494.978 436.424 494.821 435.967 494.821 435.456C494.821 435.062 494.91 434.701 495.089 434.372C495.271 434.039 495.517 433.764 495.828 433.545C496.138 433.324 496.486 433.182 496.871 433.12V433.056C496.366 432.954 495.957 432.71 495.643 432.322C495.329 431.931 495.172 431.477 495.172 430.96C495.172 430.471 495.315 430.035 495.601 429.653C495.888 429.269 496.28 428.967 496.779 428.749C497.28 428.527 497.85 428.416 498.487 428.416C499.124 428.416 499.692 428.527 500.19 428.749C500.692 428.97 501.086 429.273 501.372 429.658C501.658 430.04 501.803 430.474 501.806 430.96C501.803 431.48 501.643 431.934 501.326 432.322C501.009 432.71 500.603 432.954 500.107 433.056V433.12C500.486 433.182 500.829 433.324 501.137 433.545C501.447 433.764 501.694 434.039 501.875 434.372C502.06 434.701 502.154 435.062 502.157 435.456C502.154 435.967 501.995 436.424 501.681 436.827C501.367 437.231 500.933 437.549 500.379 437.783C499.829 438.014 499.198 438.129 498.487 438.129ZM498.487 436.661C498.804 436.661 499.081 436.604 499.318 436.49C499.555 436.374 499.739 436.213 499.872 436.01C500.007 435.804 500.075 435.567 500.075 435.299C500.075 435.026 500.006 434.784 499.867 434.575C499.729 434.362 499.541 434.196 499.304 434.076C499.067 433.953 498.794 433.891 498.487 433.891C498.182 433.891 497.91 433.953 497.67 434.076C497.43 434.196 497.24 434.362 497.102 434.575C496.966 434.784 496.899 435.026 496.899 435.299C496.899 435.567 496.965 435.804 497.097 436.01C497.229 436.213 497.416 436.374 497.656 436.49C497.896 436.604 498.173 436.661 498.487 436.661ZM498.487 432.437C498.751 432.437 498.987 432.383 499.193 432.276C499.399 432.168 499.561 432.019 499.678 431.828C499.795 431.637 499.853 431.417 499.853 431.168C499.853 430.921 499.795 430.706 499.678 430.521C499.561 430.334 499.401 430.187 499.198 430.083C498.994 429.975 498.758 429.921 498.487 429.921C498.219 429.921 497.982 429.975 497.776 430.083C497.57 430.187 497.408 430.334 497.291 430.521C497.177 430.706 497.12 430.921 497.12 431.168C497.12 431.417 497.179 431.637 497.296 431.828C497.413 432.019 497.574 432.168 497.78 432.276C497.987 432.383 498.222 432.437 498.487 432.437ZM507.268 438.129C506.615 438.129 506.033 438.009 505.523 437.769C505.015 437.529 504.612 437.198 504.313 436.777C504.014 436.355 503.859 435.872 503.847 435.327H505.786C505.807 435.693 505.961 435.99 506.247 436.218C506.534 436.446 506.874 436.56 507.268 436.56C507.581 436.56 507.858 436.49 508.099 436.352C508.342 436.21 508.531 436.015 508.666 435.766C508.805 435.513 508.874 435.224 508.874 434.898C508.874 434.565 508.803 434.273 508.662 434.021C508.523 433.768 508.331 433.571 508.085 433.43C507.838 433.288 507.557 433.216 507.24 433.213C506.963 433.213 506.694 433.27 506.432 433.384C506.173 433.497 505.972 433.653 505.827 433.85L504.05 433.531L504.498 428.546H510.277V430.18H506.146L505.901 432.548H505.956C506.123 432.314 506.373 432.12 506.709 431.966C507.044 431.812 507.42 431.736 507.835 431.736C508.405 431.736 508.913 431.869 509.359 432.137C509.805 432.405 510.157 432.773 510.416 433.24C510.675 433.705 510.802 434.241 510.799 434.847C510.802 435.484 510.655 436.05 510.356 436.546C510.061 437.038 509.647 437.426 509.114 437.709C508.585 437.989 507.969 438.129 507.268 438.129Z" fill="black"/>
<defs>
<clipPath id="clip0_1_2081">
<rect x="467.035" y="217.906" width="35" height="20" rx="3.5" transform="rotate(-15 467.035 217.906)" fill="white"/>
</clipPath>
</defs>
</svg>
