<svg width="1000" height="700" viewBox="0 0 1000 700" fill="none" xmlns="http://www.w3.org/2000/svg">
<rect width="1000" height="700" fill="#F2F2F2"/>
<path d="M898 368V668" stroke="#F42500"/>
<path d="M895 368H901" stroke="#F42500"/>
<path d="M895 668H901" stroke="#F42500"/>
<rect x="822" y="508" width="66" height="20" rx="3.5" fill="#D3D3D3"/>
<path d="M828.994 518.887V517.706H830.035C830.994 517.706 831.641 517.128 831.641 516.284C831.641 515.446 831.013 514.913 830.054 514.913C829.096 514.913 828.468 515.459 828.398 516.341H826.995C827.084 514.678 828.264 513.656 830.105 513.656C831.876 513.656 833.101 514.64 833.101 516.062C833.101 517.148 832.498 517.941 831.502 518.163V518.271C832.733 518.423 833.47 519.249 833.47 520.48C833.47 522.073 832.098 523.184 830.137 523.184C828.214 523.184 826.906 522.111 826.824 520.455H828.252C828.328 521.318 829.045 521.87 830.099 521.87C831.222 521.87 831.933 521.299 831.933 520.398C831.933 519.477 831.203 518.887 830.067 518.887H828.994ZM838.414 523.197C836.294 523.197 835.107 521.483 835.107 518.417C835.107 515.357 836.294 513.644 838.414 513.644C840.528 513.644 841.715 515.357 841.715 518.417C841.715 521.483 840.528 523.197 838.414 523.197ZM836.611 518.417C836.611 518.607 836.618 518.792 836.624 518.963L840.001 516.487C839.728 515.459 839.188 514.926 838.414 514.926C837.24 514.926 836.611 516.145 836.611 518.417ZM838.414 521.915C839.582 521.915 840.21 520.696 840.21 518.417C840.21 518.233 840.204 518.049 840.198 517.878L836.827 520.359C837.1 521.381 837.633 521.915 838.414 521.915ZM846.71 523.197C844.59 523.197 843.403 521.483 843.403 518.417C843.403 515.357 844.59 513.644 846.71 513.644C848.824 513.644 850.011 515.357 850.011 518.417C850.011 521.483 848.824 523.197 846.71 523.197ZM844.907 518.417C844.907 518.607 844.914 518.792 844.92 518.963L848.297 516.487C848.024 515.459 847.485 514.926 846.71 514.926C845.536 514.926 844.907 516.145 844.907 518.417ZM846.71 521.915C847.878 521.915 848.507 520.696 848.507 518.417C848.507 518.233 848.5 518.049 848.494 517.878L845.123 520.359C845.396 521.381 845.929 521.915 846.71 521.915ZM859.018 519.598H850.982V518.265H859.018V519.598ZM864.159 523V521.185H860.033V519.96L862.947 513.84H864.502L861.658 519.814V519.915H864.198V517.478H865.569V519.928H866.876V521.185H865.581V523H864.159ZM871.529 523.184C869.701 523.184 868.412 522.086 868.342 520.467H869.828C869.929 521.293 870.64 521.857 871.58 521.857C872.64 521.857 873.351 521.121 873.351 520.023C873.351 518.919 872.633 518.176 871.58 518.176C870.856 518.176 870.285 518.487 869.942 519.084H868.469L868.914 513.84H874.277V515.148H870.132L869.91 517.814H870.018C870.431 517.255 871.11 516.951 871.948 516.951C873.643 516.951 874.817 518.195 874.817 519.985C874.817 521.902 873.497 523.184 871.529 523.184ZM879.895 523.197C877.775 523.197 876.588 521.483 876.588 518.417C876.588 515.357 877.775 513.644 879.895 513.644C882.009 513.644 883.196 515.357 883.196 518.417C883.196 521.483 882.009 523.197 879.895 523.197ZM878.092 518.417C878.092 518.607 878.098 518.792 878.105 518.963L881.482 516.487C881.209 515.459 880.669 514.926 879.895 514.926C878.72 514.926 878.092 516.145 878.092 518.417ZM879.895 521.915C881.063 521.915 881.691 520.696 881.691 518.417C881.691 518.233 881.685 518.049 881.678 517.878L878.308 520.359C878.581 521.381 879.114 521.915 879.895 521.915Z" fill="black"/>
<path d="M717 368V158C717 158 654.5 68 499.5 68C344.5 68 282 158 282 158V368H717Z" fill="white"/>
<path d="M717 158H720C720 157.388 719.813 156.791 719.464 156.289L717 158ZM717 368V371C718.657 371 720 369.657 720 368H717ZM282 368H279C279 369.657 280.343 371 282 371V368ZM282 158L279.536 156.289C279.187 156.791 279 157.388 279 158H282ZM714 158V368H720V158H714ZM717 365H282V371H717V365ZM285 368V158H279V368H285ZM282 158C284.464 159.711 284.463 159.712 284.463 159.713C284.463 159.713 284.463 159.713 284.463 159.713C284.464 159.712 284.465 159.71 284.468 159.706C284.473 159.699 284.482 159.686 284.494 159.669C284.52 159.633 284.56 159.576 284.616 159.498C284.728 159.343 284.902 159.106 285.138 158.792C285.61 158.164 286.332 157.229 287.311 156.032C289.27 153.636 292.256 150.188 296.329 146.039C304.474 137.74 316.959 126.638 334.247 115.524C368.801 93.3107 422.618 71 499.5 71V65C421.382 65 366.449 87.6894 331.003 110.476C313.291 121.863 300.463 133.26 292.046 141.836C287.838 146.124 284.73 149.708 282.666 152.234C281.633 153.497 280.861 154.496 280.342 155.186C280.082 155.532 279.886 155.8 279.752 155.985C279.685 156.078 279.634 156.15 279.598 156.201C279.58 156.227 279.565 156.247 279.555 156.261C279.55 156.269 279.546 156.275 279.543 156.279C279.541 156.281 279.539 156.284 279.539 156.285C279.537 156.287 279.536 156.289 282 158ZM499.5 71C576.382 71 630.199 93.3107 664.753 115.524C682.041 126.638 694.526 137.74 702.671 146.039C706.744 150.188 709.73 153.636 711.689 156.032C712.668 157.229 713.39 158.164 713.862 158.792C714.098 159.106 714.272 159.343 714.384 159.498C714.44 159.576 714.48 159.633 714.506 159.669C714.518 159.686 714.527 159.699 714.532 159.706C714.535 159.71 714.536 159.712 714.537 159.713C714.537 159.713 714.537 159.713 714.537 159.713C714.537 159.712 714.536 159.711 717 158C719.464 156.289 719.463 156.287 719.461 156.285C719.461 156.284 719.459 156.281 719.457 156.279C719.454 156.275 719.45 156.269 719.445 156.261C719.435 156.247 719.42 156.227 719.402 156.201C719.366 156.15 719.315 156.078 719.248 155.985C719.114 155.8 718.918 155.532 718.658 155.186C718.139 154.496 717.367 153.497 716.334 152.234C714.27 149.708 711.162 146.124 706.954 141.836C698.536 133.26 685.709 121.863 667.997 110.476C632.551 87.6894 577.618 65 499.5 65V71Z" fill="black"/>
<path d="M125 668L875 668" stroke="black" stroke-width="12"/>
<path d="M125 368L875 368" stroke="black" stroke-width="6"/>
<path d="M407 343V393" stroke="black" stroke-width="6"/>
<path d="M282 353V383" stroke="black" stroke-width="6"/>
<path d="M592 343V393" stroke="black" stroke-width="6"/>
<path d="M717 353V383" stroke="black" stroke-width="6"/>
<path d="M259 68V368" stroke="#F42500"/>
<path d="M256 68H262" stroke="#F42500"/>
<path d="M256 368H262" stroke="#F42500"/>
<rect x="219" y="208" width="33" height="20" rx="3.5" fill="#D3D3D3"/>
<path d="M226.087 218.887V217.706H227.128C228.086 217.706 228.734 217.128 228.734 216.284C228.734 215.446 228.105 214.913 227.147 214.913C226.188 214.913 225.56 215.459 225.49 216.341H224.087C224.176 214.678 225.357 213.656 227.198 213.656C228.969 213.656 230.194 214.64 230.194 216.062C230.194 217.147 229.591 217.941 228.594 218.163V218.271C229.825 218.423 230.562 219.249 230.562 220.48C230.562 222.073 229.191 223.184 227.229 223.184C225.306 223.184 223.998 222.111 223.916 220.455H225.344C225.42 221.318 226.137 221.87 227.191 221.87C228.315 221.87 229.026 221.299 229.026 220.397C229.026 219.477 228.296 218.887 227.159 218.887H226.087ZM235.506 223.197C233.386 223.197 232.199 221.483 232.199 218.417C232.199 215.357 233.386 213.644 235.506 213.644C237.62 213.644 238.807 215.357 238.807 218.417C238.807 221.483 237.62 223.197 235.506 223.197ZM233.704 218.417C233.704 218.607 233.71 218.792 233.716 218.963L237.093 216.487C236.82 215.459 236.281 214.926 235.506 214.926C234.332 214.926 233.704 216.145 233.704 218.417ZM235.506 221.915C236.674 221.915 237.303 220.696 237.303 218.417C237.303 218.233 237.296 218.049 237.29 217.877L233.919 220.359C234.192 221.381 234.726 221.915 235.506 221.915ZM243.802 223.197C241.682 223.197 240.495 221.483 240.495 218.417C240.495 215.357 241.682 213.644 243.802 213.644C245.916 213.644 247.103 215.357 247.103 218.417C247.103 221.483 245.916 223.197 243.802 223.197ZM242 218.417C242 218.607 242.006 218.792 242.012 218.963L245.389 216.487C245.116 215.459 244.577 214.926 243.802 214.926C242.628 214.926 242 216.145 242 218.417ZM243.802 221.915C244.97 221.915 245.599 220.696 245.599 218.417C245.599 218.233 245.593 218.049 245.586 217.877L242.216 220.359C242.489 221.381 243.022 221.915 243.802 221.915Z" fill="black"/>
<path d="M282 45H717" stroke="#F42500"/>
<path d="M282 42V48" stroke="#F42500"/>
<path d="M717 42V48" stroke="#F42500"/>
<rect x="483" y="18" width="33" height="20" rx="3.5" fill="#D3D3D3"/>
<path d="M492.067 33V31.1846H487.941V29.9595L490.855 23.8403H492.41L489.566 29.8135V29.915H492.105V27.4775H493.476V29.9277H494.784V31.1846H493.489V33H492.067ZM498.383 28.8867V27.7061H499.424C500.382 27.7061 501.03 27.1284 501.03 26.2842C501.03 25.4463 500.401 24.9131 499.443 24.9131C498.484 24.9131 497.856 25.459 497.786 26.3413H496.383C496.472 24.6782 497.653 23.6562 499.494 23.6562C501.265 23.6562 502.49 24.6401 502.49 26.062C502.49 27.1475 501.887 27.9409 500.89 28.1631V28.271C502.122 28.4233 502.858 29.2485 502.858 30.48C502.858 32.0732 501.487 33.1841 499.525 33.1841C497.602 33.1841 496.294 32.1113 496.212 30.4546H497.64C497.716 31.3179 498.434 31.8701 499.487 31.8701C500.611 31.8701 501.322 31.2988 501.322 30.3975C501.322 29.4771 500.592 28.8867 499.456 28.8867H498.383ZM507.733 33.1841C505.905 33.1841 504.616 32.0859 504.546 30.4673H506.031C506.133 31.2925 506.844 31.8574 507.783 31.8574C508.843 31.8574 509.554 31.1211 509.554 30.0229C509.554 28.9185 508.837 28.1758 507.783 28.1758C507.06 28.1758 506.489 28.4868 506.146 29.0835H504.673L505.117 23.8403H510.481V25.1479H506.336L506.114 27.814H506.222C506.635 27.2554 507.314 26.9507 508.152 26.9507C509.846 26.9507 511.021 28.1948 511.021 29.9849C511.021 31.9019 509.7 33.1841 507.733 33.1841Z" fill="black"/>
<path d="M740 158V368" stroke="#F42500"/>
<path d="M737 158H743" stroke="#F42500"/>
<path d="M737 368H743" stroke="#F42500"/>
<rect x="747" y="253" width="33" height="20" rx="3.5" fill="#D3D3D3"/>
<path d="M752.062 261.525C752.062 259.831 753.338 258.656 755.159 258.656C756.969 258.656 758.194 259.716 758.194 261.278C758.194 262.255 757.705 263.074 756.194 264.604L754.258 266.578V266.692H758.34V268H752.144V266.94L755.172 263.785C756.385 262.509 756.696 262.027 756.696 261.367C756.696 260.491 756.067 259.919 755.115 259.919C754.144 259.919 753.503 260.561 753.503 261.519V261.564H752.062V261.525ZM767.017 268H760.517V266.711H763.075V260.415H762.967L760.504 262.033V260.542L763.081 258.84H764.579V266.711H767.017V268ZM771.802 268.197C769.682 268.197 768.495 266.483 768.495 263.417C768.495 260.357 769.682 258.644 771.802 258.644C773.916 258.644 775.103 260.357 775.103 263.417C775.103 266.483 773.916 268.197 771.802 268.197ZM770 263.417C770 263.607 770.006 263.792 770.012 263.963L773.389 261.487C773.116 260.459 772.577 259.926 771.802 259.926C770.628 259.926 770 261.145 770 263.417ZM771.802 266.915C772.97 266.915 773.599 265.696 773.599 263.417C773.599 263.233 773.593 263.049 773.586 262.878L770.216 265.359C770.489 266.381 771.022 266.915 771.802 266.915Z" fill="black"/>
<g clip-path="url(#clip0_1_2081)">
<rect x="468.967" y="217.647" width="33" height="20" rx="3.5" transform="rotate(-15 468.967 217.647)" fill="#D3D3D3"/>
<path d="M478.63 226.329L478.324 225.188L479.33 224.919C480.256 224.671 480.732 223.945 480.513 223.13C480.296 222.32 479.551 221.968 478.626 222.216C477.7 222.464 477.234 223.154 477.395 224.024L476.04 224.387C475.695 222.758 476.571 221.465 478.349 220.989C480.06 220.531 481.498 221.164 481.866 222.537C482.147 223.586 481.77 224.508 480.865 224.981L480.893 225.085C482.122 224.913 483.046 225.52 483.365 226.709C483.777 228.248 482.741 229.676 480.846 230.184C478.988 230.682 477.447 229.984 476.939 228.405L478.318 228.035C478.616 228.849 479.451 229.197 480.469 228.925C481.554 228.634 482.093 227.898 481.86 227.027C481.622 226.138 480.764 225.757 479.666 226.051L478.63 226.329ZM488.844 228.054C486.796 228.603 485.206 227.254 484.413 224.293C483.621 221.338 484.324 219.375 486.372 218.826C488.413 218.279 490.004 219.627 490.796 222.583C491.589 225.544 490.886 227.507 488.844 228.054ZM485.866 223.904C485.915 224.087 485.969 224.264 486.019 224.428L488.641 221.162C488.111 220.24 487.452 219.864 486.704 220.065C485.569 220.369 485.278 221.709 485.866 223.904ZM488.512 226.815C489.641 226.513 489.932 225.173 489.342 222.972C489.295 222.794 489.241 222.618 489.19 222.454L486.577 225.724C487.105 226.64 487.758 227.017 488.512 226.815ZM496.858 225.907C494.81 226.455 493.22 225.107 492.426 222.146C491.634 219.19 492.337 217.228 494.385 216.679C496.427 216.132 498.017 217.48 498.809 220.435C499.602 223.397 498.899 225.36 496.858 225.907ZM493.879 221.756C493.929 221.94 493.982 222.116 494.033 222.28L496.654 219.015C496.124 218.092 495.465 217.717 494.717 217.918C493.583 218.221 493.291 219.561 493.879 221.756ZM496.526 224.668C497.654 224.366 497.946 223.026 497.356 220.825C497.308 220.647 497.254 220.471 497.204 220.307L494.591 223.577C495.119 224.493 495.772 224.87 496.526 224.668Z" fill="black"/>
</g>
<path d="M500 367.778L422.354 78" stroke="#F42500" stroke-dasharray="6 3"/>
<path d="M592 416H717" stroke="#F42500"/>
<path d="M592 413V419" stroke="#F42500"/>
<path d="M717 413V419" stroke="#F42500"/>
<rect x="638" y="423" width="33" height="20" rx="3.5" fill="#D3D3D3"/>
<path d="M649.72 438H643.22V436.711H645.779V430.415H645.671L643.208 432.033V430.542L645.785 428.84H647.283V436.711H649.72V438ZM651.358 431.525C651.358 429.831 652.634 428.656 654.456 428.656C656.265 428.656 657.49 429.716 657.49 431.278C657.49 432.255 657.001 433.074 655.49 434.604L653.554 436.578V436.692H657.636V438H651.44V436.94L654.468 433.785C655.681 432.509 655.992 432.027 655.992 431.367C655.992 430.491 655.363 429.919 654.411 429.919C653.44 429.919 652.799 430.561 652.799 431.519V431.564H651.358V431.525ZM662.733 438.184C660.905 438.184 659.616 437.086 659.546 435.467H661.031C661.133 436.293 661.844 436.857 662.783 436.857C663.843 436.857 664.554 436.121 664.554 435.023C664.554 433.919 663.837 433.176 662.783 433.176C662.06 433.176 661.489 433.487 661.146 434.084H659.673L660.117 428.84H665.481V430.148H661.336L661.114 432.814H661.222C661.635 432.255 662.314 431.951 663.152 431.951C664.846 431.951 666.021 433.195 666.021 434.985C666.021 436.902 664.7 438.184 662.733 438.184Z" fill="black"/>
<path d="M282 416H407" stroke="#F42500"/>
<path d="M282 413V419" stroke="#F42500"/>
<path d="M407 413V419" stroke="#F42500"/>
<rect x="328" y="423" width="33" height="20" rx="3.5" fill="#D3D3D3"/>
<path d="M339.72 438H333.22V436.711H335.779V430.415H335.671L333.208 432.033V430.542L335.785 428.84H337.283V436.711H339.72V438ZM341.358 431.525C341.358 429.831 342.634 428.656 344.456 428.656C346.265 428.656 347.49 429.716 347.49 431.278C347.49 432.255 347.001 433.074 345.49 434.604L343.554 436.578V436.692H347.636V438H341.44V436.94L344.468 433.785C345.681 432.509 345.992 432.027 345.992 431.367C345.992 430.491 345.363 429.919 344.411 429.919C343.44 429.919 342.799 430.561 342.799 431.519V431.564H341.358V431.525ZM352.733 438.184C350.905 438.184 349.616 437.086 349.546 435.467H351.031C351.133 436.293 351.844 436.857 352.783 436.857C353.843 436.857 354.554 436.121 354.554 435.023C354.554 433.919 353.837 433.176 352.783 433.176C352.06 433.176 351.489 433.487 351.146 434.084H349.673L350.117 428.84H355.481V430.148H351.336L351.114 432.814H351.222C351.635 432.255 352.314 431.951 353.152 431.951C354.846 431.951 356.021 433.195 356.021 434.985C356.021 436.902 354.7 438.184 352.733 438.184Z" fill="black"/>
<path d="M407 416H592" stroke="#F42500"/>
<path d="M407 413V419" stroke="#F42500"/>
<path d="M592 413V419" stroke="#F42500"/>
<rect x="483" y="423" width="33" height="20" rx="3.5" fill="#D3D3D3"/>
<path d="M494.72 438H488.22V436.711H490.779V430.415H490.671L488.208 432.033V430.542L490.785 428.84H492.283V436.711H494.72V438ZM499.519 438.197C497.462 438.197 496.06 437.118 496.06 435.537C496.06 434.407 496.815 433.493 497.996 433.214V433.106C497.037 432.865 496.428 432.084 496.428 431.107C496.428 429.666 497.71 428.644 499.519 428.644C501.328 428.644 502.61 429.666 502.61 431.107C502.61 432.084 502.007 432.858 501.036 433.106V433.214C502.204 433.468 502.979 434.401 502.979 435.537C502.979 437.118 501.576 438.197 499.519 438.197ZM499.519 432.643C500.465 432.643 501.1 432.078 501.1 431.24C501.1 430.408 500.465 429.843 499.519 429.843C498.567 429.843 497.938 430.408 497.938 431.24C497.938 432.078 498.567 432.643 499.519 432.643ZM499.519 436.984C500.636 436.984 501.404 436.337 501.404 435.404C501.404 434.464 500.636 433.823 499.519 433.823C498.402 433.823 497.634 434.464 497.634 435.404C497.634 436.337 498.402 436.984 499.519 436.984ZM507.733 438.184C505.905 438.184 504.616 437.086 504.546 435.467H506.031C506.133 436.293 506.844 436.857 507.783 436.857C508.843 436.857 509.554 436.121 509.554 435.023C509.554 433.919 508.837 433.176 507.783 433.176C507.06 433.176 506.489 433.487 506.146 434.084H504.673L505.117 428.84H510.481V430.148H506.336L506.114 432.814H506.222C506.635 432.255 507.314 431.951 508.152 431.951C509.846 431.951 511.021 433.195 511.021 434.985C511.021 436.902 509.7 438.184 507.733 438.184Z" fill="black"/>
<defs>
<clipPath id="clip0_1_2081">
<rect x="468.967" y="217.647" width="33" height="20" rx="3.5" transform="rotate(-15 468.967 217.647)" fill="white"/>
</clipPath>
</defs>
</svg>
