<svg width="1000" height="700" viewBox="0 0 1000 700" fill="none" xmlns="http://www.w3.org/2000/svg">
<rect width="1000" height="700" fill="#F2F2F2"/>
<path d="M898 368V668" stroke="#F42500"/>
<path d="M895 368H901" stroke="#F42500"/>
<path d="M895 668H901" stroke="#F42500"/>
<rect x="822" y="508" width="69" height="20" rx="3.5" fill="#D3D3D3"/>
<path d="M830.426 523.129C829.737 523.129 829.123 523.011 828.584 522.774C828.049 522.534 827.626 522.204 827.315 521.786C827.007 521.364 826.849 520.878 826.839 520.327H828.852C828.864 520.558 828.94 520.761 829.078 520.936C829.22 521.109 829.408 521.243 829.642 521.338C829.875 521.433 830.139 521.481 830.431 521.481C830.736 521.481 831.005 521.427 831.239 521.32C831.473 521.212 831.656 521.063 831.788 520.872C831.921 520.681 831.987 520.461 831.987 520.212C831.987 519.959 831.916 519.736 831.774 519.542C831.636 519.345 831.436 519.191 831.174 519.081C830.916 518.97 830.608 518.914 830.251 518.914H829.369V517.446H830.251C830.553 517.446 830.819 517.394 831.05 517.289C831.283 517.185 831.465 517.04 831.594 516.855C831.724 516.668 831.788 516.449 831.788 516.2C831.788 515.963 831.731 515.755 831.617 515.577C831.507 515.395 831.35 515.254 831.146 515.152C830.946 515.05 830.713 515 830.445 515C830.174 515 829.926 515.049 829.702 515.147C829.477 515.243 829.297 515.38 829.161 515.558C829.026 515.737 828.954 515.946 828.944 516.186H827.029C827.038 515.641 827.193 515.161 827.495 514.746C827.796 514.33 828.203 514.006 828.714 513.772C829.228 513.535 829.808 513.416 830.454 513.416C831.106 513.416 831.677 513.535 832.167 513.772C832.656 514.009 833.036 514.329 833.307 514.732C833.581 515.132 833.716 515.581 833.713 516.08C833.716 516.609 833.552 517.051 833.219 517.405C832.89 517.759 832.461 517.983 831.931 518.079V518.153C832.627 518.242 833.156 518.484 833.519 518.877C833.886 519.268 834.067 519.758 834.064 520.346C834.067 520.884 833.912 521.363 833.598 521.781C833.287 522.2 832.858 522.529 832.31 522.769C831.762 523.009 831.134 523.129 830.426 523.129ZM839.468 523.208C838.674 523.205 837.991 523.009 837.418 522.621C836.849 522.234 836.41 521.672 836.103 520.936C835.798 520.201 835.647 519.316 835.65 518.282C835.65 517.251 835.803 516.372 836.107 515.646C836.415 514.92 836.854 514.367 837.423 513.989C837.995 513.607 838.677 513.416 839.468 513.416C840.259 513.416 840.939 513.607 841.508 513.989C842.081 514.37 842.521 514.924 842.829 515.651C843.137 516.374 843.289 517.251 843.286 518.282C843.286 519.319 843.132 520.205 842.824 520.941C842.52 521.677 842.082 522.238 841.513 522.626C840.944 523.014 840.262 523.208 839.468 523.208ZM839.468 521.55C840.01 521.55 840.442 521.278 840.765 520.733C841.088 520.189 841.248 519.371 841.245 518.282C841.245 517.565 841.171 516.968 841.024 516.491C840.879 516.014 840.673 515.655 840.405 515.415C840.14 515.175 839.828 515.055 839.468 515.055C838.929 515.055 838.499 515.324 838.175 515.863C837.852 516.402 837.689 517.208 837.686 518.282C837.686 519.008 837.758 519.615 837.903 520.101C838.051 520.584 838.258 520.947 838.526 521.19C838.794 521.43 839.108 521.55 839.468 521.55ZM848.678 523.208C847.884 523.205 847.201 523.009 846.628 522.621C846.059 522.234 845.621 521.672 845.313 520.936C845.008 520.201 844.857 519.316 844.86 518.282C844.86 517.251 845.013 516.372 845.317 515.646C845.625 514.92 846.064 514.367 846.633 513.989C847.206 513.607 847.887 513.416 848.678 513.416C849.469 513.416 850.149 513.607 850.719 513.989C851.291 514.37 851.731 514.924 852.039 515.651C852.347 516.374 852.499 517.251 852.496 518.282C852.496 519.319 852.342 520.205 852.034 520.941C851.73 521.677 851.293 522.238 850.723 522.626C850.154 523.014 849.472 523.208 848.678 523.208ZM848.678 521.55C849.22 521.55 849.652 521.278 849.975 520.733C850.299 520.189 850.459 519.371 850.456 518.282C850.456 517.565 850.382 516.968 850.234 516.491C850.089 516.014 849.883 515.655 849.615 515.415C849.351 515.175 849.038 515.055 848.678 515.055C848.14 515.055 847.709 515.324 847.386 515.863C847.062 516.402 846.899 517.208 846.896 518.282C846.896 519.008 846.969 519.615 847.113 520.101C847.261 520.584 847.469 520.947 847.736 521.19C848.004 521.43 848.318 521.55 848.678 521.55ZM859.915 517.493V519.053H853.415V517.493H859.915ZM860.798 521.338V519.764L864.745 513.545H866.103V515.724H865.299L862.811 519.662V519.736H868.42V521.338H860.798ZM865.336 523V520.858L865.373 520.161V513.545H867.247V523H865.336ZM873.465 523.129C872.813 523.129 872.231 523.009 871.72 522.769C871.212 522.529 870.809 522.198 870.51 521.777C870.212 521.355 870.057 520.872 870.044 520.327H871.983C872.005 520.693 872.159 520.99 872.445 521.218C872.731 521.446 873.071 521.56 873.465 521.56C873.779 521.56 874.056 521.49 874.296 521.352C874.539 521.21 874.728 521.015 874.864 520.766C875.002 520.513 875.072 520.224 875.072 519.898C875.072 519.565 875.001 519.273 874.859 519.021C874.721 518.768 874.528 518.571 874.282 518.43C874.036 518.288 873.754 518.216 873.437 518.213C873.16 518.213 872.891 518.27 872.629 518.384C872.371 518.497 872.169 518.653 872.025 518.85L870.247 518.531L870.695 513.545H876.475V515.18H872.343L872.099 517.548H872.154C872.32 517.314 872.571 517.12 872.906 516.966C873.242 516.812 873.617 516.735 874.033 516.735C874.602 516.735 875.11 516.869 875.556 517.137C876.003 517.405 876.355 517.773 876.613 518.24C876.872 518.705 877 519.241 876.997 519.847C877 520.484 876.852 521.05 876.553 521.546C876.258 522.038 875.844 522.426 875.312 522.709C874.782 522.989 874.167 523.129 873.465 523.129ZM882.358 523.208C881.564 523.205 880.881 523.009 880.308 522.621C879.739 522.234 879.3 521.672 878.992 520.936C878.688 520.201 878.537 519.316 878.54 518.282C878.54 517.251 878.692 516.372 878.997 515.646C879.305 514.92 879.743 514.367 880.313 513.989C880.885 513.607 881.567 513.416 882.358 513.416C883.149 513.416 883.829 513.607 884.398 513.989C884.971 514.37 885.411 514.924 885.719 515.651C886.026 516.374 886.179 517.251 886.176 518.282C886.176 519.319 886.022 520.205 885.714 520.941C885.409 521.677 884.972 522.238 884.403 522.626C883.834 523.014 883.152 523.208 882.358 523.208ZM882.358 521.55C882.9 521.55 883.332 521.278 883.655 520.733C883.978 520.189 884.138 519.371 884.135 518.282C884.135 517.565 884.061 516.968 883.914 516.491C883.769 516.014 883.563 515.655 883.295 515.415C883.03 515.175 882.718 515.055 882.358 515.055C881.819 515.055 881.388 515.324 881.065 515.863C880.742 516.402 880.579 517.208 880.576 518.282C880.576 519.008 880.648 519.615 880.793 520.101C880.941 520.584 881.148 520.947 881.416 521.19C881.684 521.43 881.998 521.55 882.358 521.55Z" fill="black"/>
<path d="M282 353V383" stroke="black" stroke-width="6"/>
<path d="M717 353V383" stroke="black" stroke-width="6"/>
<path d="M717 368V168L592 68H407L282 168V368H717Z" fill="white"/>
<path d="M717 168H720C720 167.089 719.586 166.227 718.874 165.657L717 168ZM717 368V371C718.657 371 720 369.657 720 368H717ZM282 368H279C279 369.657 280.343 371 282 371V368ZM282 168L280.126 165.657C279.414 166.227 279 167.089 279 168H282ZM407 68V65H405.948L405.126 65.6574L407 68ZM592 68L593.874 65.6574L593.052 65H592V68ZM714 168V368H720V168H714ZM717 365H282V371H717V365ZM285 368V168H279V368H285ZM283.874 170.343L408.874 70.3426L405.126 65.6574L280.126 165.657L283.874 170.343ZM407 71H592V65H407V71ZM590.126 70.3426L715.126 170.343L718.874 165.657L593.874 65.6574L590.126 70.3426Z" fill="black"/>
<path d="M125 668L875 668" stroke="black" stroke-width="12"/>
<path d="M125 368L875 368" stroke="black" stroke-width="6"/>
<path d="M407 343V393" stroke="black" stroke-width="6"/>
<path d="M592 343V393" stroke="black" stroke-width="6"/>
<path d="M282 45H717" stroke="#F42500"/>
<path d="M282 42V48" stroke="#F42500"/>
<path d="M717 42V48" stroke="#F42500"/>
<rect x="482" y="18" width="35" height="20" rx="3.5" fill="#D3D3D3"/>
<path d="M486.984 31.3381V29.7638L490.931 23.5455H492.288V25.7244H491.485L488.997 29.6623V29.7362H494.606V31.3381H486.984ZM491.522 33V30.858L491.559 30.1609V23.5455H493.433V33H491.522ZM499.692 33.1293C499.003 33.1293 498.389 33.0108 497.85 32.7738C497.315 32.5337 496.891 32.2044 496.581 31.7859C496.273 31.3642 496.114 30.878 496.105 30.3271H498.118C498.13 30.5579 498.206 30.761 498.344 30.9364C498.486 31.1088 498.673 31.2427 498.907 31.3381C499.141 31.4335 499.404 31.4812 499.697 31.4812C500.001 31.4812 500.271 31.4273 500.505 31.3196C500.739 31.2119 500.922 31.0626 501.054 30.8718C501.186 30.681 501.253 30.4609 501.253 30.2116C501.253 29.9593 501.182 29.7362 501.04 29.5423C500.902 29.3453 500.702 29.1914 500.44 29.0806C500.182 28.9698 499.874 28.9144 499.517 28.9144H498.635V27.4464H499.517C499.818 27.4464 500.085 27.3941 500.315 27.2894C500.549 27.1848 500.731 27.0401 500.86 26.8555C500.989 26.6677 501.054 26.4492 501.054 26.1999C501.054 25.9629 500.997 25.7552 500.883 25.5767C500.772 25.3951 500.615 25.2536 500.412 25.152C500.212 25.0504 499.978 24.9996 499.711 24.9996C499.44 24.9996 499.192 25.0489 498.967 25.1474C498.743 25.2428 498.563 25.3797 498.427 25.5582C498.292 25.7367 498.22 25.946 498.21 26.1861H496.294C496.304 25.6413 496.459 25.1612 496.761 24.7457C497.062 24.3303 497.469 24.0056 497.979 23.7717C498.493 23.5347 499.074 23.4162 499.72 23.4162C500.372 23.4162 500.943 23.5347 501.433 23.7717C501.922 24.0086 502.302 24.3287 502.573 24.7319C502.847 25.132 502.982 25.5813 502.979 26.0799C502.982 26.6093 502.818 27.0509 502.485 27.4048C502.156 27.7588 501.726 27.9834 501.197 28.0788V28.1527C501.893 28.242 502.422 28.4835 502.785 28.8775C503.151 29.2683 503.333 29.7577 503.33 30.3455C503.333 30.8841 503.178 31.3627 502.864 31.7812C502.553 32.1998 502.124 32.5291 501.576 32.7692C501.028 33.0092 500.4 33.1293 499.692 33.1293ZM508.48 33.1293C507.827 33.1293 507.246 33.0092 506.735 32.7692C506.227 32.5291 505.824 32.1983 505.525 31.7766C505.227 31.355 505.071 30.8718 505.059 30.3271H506.998C507.02 30.6933 507.173 30.9903 507.46 31.218C507.746 31.4458 508.086 31.5597 508.48 31.5597C508.794 31.5597 509.071 31.4904 509.311 31.3519C509.554 31.2103 509.743 31.0149 509.879 30.7656C510.017 30.5133 510.086 30.224 510.086 29.8977C510.086 29.5653 510.016 29.273 509.874 29.0206C509.736 28.7682 509.543 28.5713 509.297 28.4297C509.051 28.2881 508.769 28.2158 508.452 28.2127C508.175 28.2127 507.906 28.2696 507.644 28.3835C507.386 28.4974 507.184 28.6528 507.04 28.8498L505.262 28.5312L505.71 23.5455H511.49V25.1797H507.358L507.113 27.5479H507.169C507.335 27.314 507.586 27.1201 507.921 26.9663C508.257 26.8124 508.632 26.7354 509.048 26.7354C509.617 26.7354 510.125 26.8693 510.571 27.1371C511.017 27.4048 511.37 27.7726 511.628 28.2404C511.887 28.7051 512.015 29.2406 512.012 29.8469C512.015 30.484 511.867 31.0503 511.568 31.5458C511.273 32.0382 510.859 32.426 510.327 32.7092C509.797 32.9892 509.182 33.1293 508.48 33.1293Z" fill="black"/>
<path d="M259 68V368" stroke="#F42500"/>
<path d="M256 68H262" stroke="#F42500"/>
<path d="M256 368H262" stroke="#F42500"/>
<rect x="217" y="208" width="35" height="20" rx="3.5" fill="#D3D3D3"/>
<path d="M225.266 223.129C224.577 223.129 223.963 223.011 223.424 222.774C222.889 222.534 222.465 222.204 222.155 221.786C221.847 221.364 221.688 220.878 221.679 220.327H223.692C223.704 220.558 223.78 220.761 223.918 220.936C224.06 221.109 224.247 221.243 224.481 221.338C224.715 221.433 224.978 221.481 225.271 221.481C225.575 221.481 225.845 221.427 226.079 221.32C226.313 221.212 226.496 221.063 226.628 220.872C226.76 220.681 226.827 220.461 226.827 220.212C226.827 219.959 226.756 219.736 226.614 219.542C226.476 219.345 226.276 219.191 226.014 219.081C225.755 218.97 225.448 218.914 225.091 218.914H224.209V217.446H225.091C225.392 217.446 225.659 217.394 225.889 217.289C226.123 217.185 226.305 217.04 226.434 216.855C226.563 216.668 226.628 216.449 226.628 216.2C226.628 215.963 226.571 215.755 226.457 215.577C226.346 215.395 226.189 215.254 225.986 215.152C225.786 215.05 225.552 215 225.285 215C225.014 215 224.766 215.049 224.541 215.147C224.317 215.243 224.137 215.38 224.001 215.558C223.866 215.737 223.793 215.946 223.784 216.186H221.868C221.878 215.641 222.033 215.161 222.335 214.746C222.636 214.33 223.043 214.006 223.553 213.772C224.067 213.535 224.648 213.416 225.294 213.416C225.946 213.416 226.517 213.535 227.007 213.772C227.496 214.009 227.876 214.329 228.147 214.732C228.421 215.132 228.556 215.581 228.553 216.08C228.556 216.609 228.392 217.051 228.059 217.405C227.73 217.759 227.3 217.983 226.771 218.079V218.153C227.467 218.242 227.996 218.484 228.359 218.877C228.725 219.268 228.907 219.758 228.904 220.346C228.907 220.884 228.752 221.363 228.438 221.781C228.127 222.2 227.697 222.529 227.15 222.769C226.602 223.009 225.974 223.129 225.266 223.129ZM234.308 223.208C233.514 223.205 232.831 223.009 232.258 222.621C231.689 222.234 231.25 221.672 230.942 220.936C230.638 220.201 230.487 219.316 230.49 218.282C230.49 217.251 230.642 216.372 230.947 215.646C231.255 214.92 231.693 214.367 232.263 213.989C232.835 213.607 233.517 213.416 234.308 213.416C235.099 213.416 235.779 213.607 236.348 213.989C236.921 214.37 237.361 214.924 237.669 215.651C237.976 216.374 238.129 217.251 238.126 218.282C238.126 219.319 237.972 220.205 237.664 220.941C237.359 221.677 236.922 222.238 236.353 222.626C235.784 223.014 235.102 223.208 234.308 223.208ZM234.308 221.55C234.85 221.55 235.282 221.278 235.605 220.733C235.928 220.189 236.088 219.371 236.085 218.282C236.085 217.565 236.011 216.968 235.864 216.491C235.719 216.014 235.513 215.655 235.245 215.415C234.98 215.175 234.668 215.055 234.308 215.055C233.769 215.055 233.338 215.324 233.015 215.863C232.692 216.402 232.529 217.208 232.526 218.282C232.526 219.008 232.598 219.615 232.743 220.101C232.891 220.584 233.098 220.947 233.366 221.19C233.634 221.43 233.948 221.55 234.308 221.55ZM243.518 223.208C242.724 223.205 242.041 223.009 241.468 222.621C240.899 222.234 240.46 221.672 240.153 220.936C239.848 220.201 239.697 219.316 239.7 218.282C239.7 217.251 239.853 216.372 240.157 215.646C240.465 214.92 240.904 214.367 241.473 213.989C242.045 213.607 242.727 213.416 243.518 213.416C244.309 213.416 244.989 213.607 245.559 213.989C246.131 214.37 246.571 214.924 246.879 215.651C247.187 216.374 247.339 217.251 247.336 218.282C247.336 219.319 247.182 220.205 246.874 220.941C246.57 221.677 246.133 222.238 245.563 222.626C244.994 223.014 244.312 223.208 243.518 223.208ZM243.518 221.55C244.06 221.55 244.492 221.278 244.815 220.733C245.138 220.189 245.298 219.371 245.295 218.282C245.295 217.565 245.222 216.968 245.074 216.491C244.929 216.014 244.723 215.655 244.455 215.415C244.191 215.175 243.878 215.055 243.518 215.055C242.979 215.055 242.549 215.324 242.225 215.863C241.902 216.402 241.739 217.208 241.736 218.282C241.736 219.008 241.808 219.615 241.953 220.101C242.101 220.584 242.309 220.947 242.576 221.19C242.844 221.43 243.158 221.55 243.518 221.55Z" fill="black"/>
<path d="M740 168V368" stroke="#F42500"/>
<path d="M737 168H743" stroke="#F42500"/>
<path d="M737 368H743" stroke="#F42500"/>
<rect x="747" y="258" width="35" height="20" rx="3.5" fill="#D3D3D3"/>
<path d="M751.962 273V271.56L755.327 268.444C755.614 268.167 755.854 267.917 756.047 267.696C756.244 267.474 756.394 267.257 756.495 267.045C756.597 266.829 756.648 266.597 756.648 266.348C756.648 266.071 756.585 265.832 756.458 265.632C756.332 265.429 756.16 265.274 755.941 265.166C755.723 265.055 755.475 265 755.198 265C754.909 265 754.656 265.058 754.441 265.175C754.226 265.292 754.059 265.46 753.942 265.678C753.825 265.897 753.767 266.157 753.767 266.458H751.87C751.87 265.84 752.01 265.303 752.29 264.847C752.57 264.392 752.962 264.039 753.467 263.79C753.972 263.541 754.553 263.416 755.212 263.416C755.889 263.416 756.478 263.536 756.98 263.776C757.485 264.013 757.877 264.343 758.157 264.764C758.437 265.186 758.577 265.669 758.577 266.214C758.577 266.571 758.507 266.923 758.365 267.271C758.226 267.619 757.979 268.005 757.622 268.43C757.265 268.851 756.761 269.358 756.112 269.949L754.732 271.301V271.366H758.702V273H751.962ZM764.117 273.208C763.323 273.205 762.64 273.009 762.068 272.621C761.498 272.234 761.06 271.672 760.752 270.936C760.447 270.201 760.297 269.316 760.3 268.282C760.3 267.251 760.452 266.372 760.757 265.646C761.064 264.92 761.503 264.367 762.072 263.989C762.645 263.607 763.326 263.416 764.117 263.416C764.908 263.416 765.589 263.607 766.158 263.989C766.73 264.37 767.17 264.924 767.478 265.651C767.786 266.374 767.938 267.251 767.935 268.282C767.935 269.319 767.781 270.205 767.474 270.941C767.169 271.677 766.732 272.238 766.163 272.626C765.593 273.014 764.911 273.208 764.117 273.208ZM764.117 271.55C764.659 271.55 765.091 271.278 765.415 270.733C765.738 270.189 765.898 269.371 765.895 268.282C765.895 267.565 765.821 266.968 765.673 266.491C765.529 266.014 765.322 265.655 765.055 265.415C764.79 265.175 764.477 265.055 764.117 265.055C763.579 265.055 763.148 265.324 762.825 265.863C762.502 266.402 762.339 267.208 762.335 268.282C762.335 269.008 762.408 269.615 762.552 270.101C762.7 270.584 762.908 270.947 763.176 271.19C763.443 271.43 763.757 271.55 764.117 271.55ZM773.328 273.208C772.534 273.205 771.85 273.009 771.278 272.621C770.709 272.234 770.27 271.672 769.962 270.936C769.658 270.201 769.507 269.316 769.51 268.282C769.51 267.251 769.662 266.372 769.967 265.646C770.275 264.92 770.713 264.367 771.283 263.989C771.855 263.607 772.537 263.416 773.328 263.416C774.119 263.416 774.799 263.607 775.368 263.989C775.941 264.37 776.381 264.924 776.688 265.651C776.996 266.374 777.149 267.251 777.145 268.282C777.145 269.319 776.992 270.205 776.684 270.941C776.379 271.677 775.942 272.238 775.373 272.626C774.803 273.014 774.122 273.208 773.328 273.208ZM773.328 271.55C773.869 271.55 774.302 271.278 774.625 270.733C774.948 270.189 775.108 269.371 775.105 268.282C775.105 267.565 775.031 266.968 774.883 266.491C774.739 266.014 774.533 265.655 774.265 265.415C774 265.175 773.688 265.055 773.328 265.055C772.789 265.055 772.358 265.324 772.035 265.863C771.712 266.402 771.549 267.208 771.546 268.282C771.546 269.008 771.618 269.615 771.763 270.101C771.91 270.584 772.118 270.947 772.386 271.19C772.654 271.43 772.968 271.55 773.328 271.55Z" fill="black"/>
<path d="M406 416H591" stroke="#F42500"/>
<path d="M406 413V419" stroke="#F42500"/>
<path d="M591 413V419" stroke="#F42500"/>
<rect x="482.5" y="423" width="32" height="20" rx="3.5" fill="#D3D3D3"/>
<path d="M491.453 428.545V438H489.454V430.443H489.398L487.233 431.8V430.027L489.574 428.545H491.453ZM497.487 438.129C496.776 438.129 496.143 438.014 495.589 437.783C495.038 437.549 494.606 437.231 494.292 436.827C493.978 436.424 493.821 435.967 493.821 435.456C493.821 435.062 493.91 434.701 494.089 434.371C494.271 434.039 494.517 433.764 494.828 433.545C495.138 433.324 495.486 433.182 495.871 433.12V433.056C495.366 432.954 494.957 432.71 494.643 432.322C494.329 431.931 494.172 431.477 494.172 430.96C494.172 430.471 494.315 430.035 494.601 429.653C494.888 429.269 495.28 428.967 495.779 428.749C496.28 428.527 496.85 428.416 497.487 428.416C498.124 428.416 498.692 428.527 499.19 428.749C499.692 428.97 500.086 429.273 500.372 429.658C500.658 430.04 500.803 430.474 500.806 430.96C500.803 431.48 500.643 431.934 500.326 432.322C500.009 432.71 499.603 432.954 499.107 433.056V433.12C499.486 433.182 499.829 433.324 500.137 433.545C500.447 433.764 500.694 434.039 500.875 434.371C501.06 434.701 501.154 435.062 501.157 435.456C501.154 435.967 500.995 436.424 500.681 436.827C500.367 437.231 499.933 437.549 499.379 437.783C498.829 438.014 498.198 438.129 497.487 438.129ZM497.487 436.661C497.804 436.661 498.081 436.604 498.318 436.49C498.555 436.373 498.739 436.213 498.872 436.01C499.007 435.804 499.075 435.567 499.075 435.299C499.075 435.025 499.006 434.784 498.867 434.575C498.729 434.362 498.541 434.196 498.304 434.076C498.067 433.953 497.794 433.891 497.487 433.891C497.182 433.891 496.91 433.953 496.67 434.076C496.43 434.196 496.24 434.362 496.102 434.575C495.966 434.784 495.899 435.025 495.899 435.299C495.899 435.567 495.965 435.804 496.097 436.01C496.229 436.213 496.416 436.373 496.656 436.49C496.896 436.604 497.173 436.661 497.487 436.661ZM497.487 432.437C497.751 432.437 497.987 432.383 498.193 432.276C498.399 432.168 498.561 432.019 498.678 431.828C498.795 431.637 498.853 431.417 498.853 431.168C498.853 430.921 498.795 430.706 498.678 430.521C498.561 430.334 498.401 430.187 498.198 430.083C497.994 429.975 497.758 429.921 497.487 429.921C497.219 429.921 496.982 429.975 496.776 430.083C496.57 430.187 496.408 430.334 496.291 430.521C496.177 430.706 496.12 430.921 496.12 431.168C496.12 431.417 496.179 431.637 496.296 431.828C496.413 432.019 496.574 432.168 496.78 432.276C496.987 432.383 497.222 432.437 497.487 432.437ZM506.268 438.129C505.615 438.129 505.033 438.009 504.523 437.769C504.015 437.529 503.612 437.198 503.313 436.777C503.014 436.355 502.859 435.872 502.847 435.327H504.786C504.807 435.693 504.961 435.99 505.247 436.218C505.534 436.446 505.874 436.56 506.268 436.56C506.581 436.56 506.858 436.49 507.099 436.352C507.342 436.21 507.531 436.015 507.666 435.766C507.805 435.513 507.874 435.224 507.874 434.898C507.874 434.565 507.803 434.273 507.662 434.021C507.523 433.768 507.331 433.571 507.085 433.43C506.838 433.288 506.557 433.216 506.24 433.213C505.963 433.213 505.694 433.27 505.432 433.384C505.173 433.497 504.972 433.653 504.827 433.85L503.05 433.531L503.498 428.545H509.277V430.18H505.146L504.901 432.548H504.956C505.123 432.314 505.373 432.12 505.709 431.966C506.044 431.812 506.42 431.735 506.835 431.735C507.405 431.735 507.913 431.869 508.359 432.137C508.805 432.405 509.157 432.773 509.416 433.24C509.675 433.705 509.802 434.241 509.799 434.847C509.802 435.484 509.655 436.05 509.356 436.546C509.061 437.038 508.647 437.426 508.114 437.709C507.585 437.989 506.969 438.129 506.268 438.129Z" fill="black"/>
<path d="M281 416H406" stroke="#F42500"/>
<path d="M281 413V419" stroke="#F42500"/>
<path d="M406 413V419" stroke="#F42500"/>
<rect x="327.5" y="423" width="32" height="20" rx="3.5" fill="#D3D3D3"/>
<path d="M336.656 428.545V438H334.657V430.443H334.601L332.436 431.8V430.027L334.777 428.545H336.656ZM339.163 438V436.56L342.528 433.444C342.814 433.167 343.055 432.917 343.248 432.696C343.445 432.474 343.595 432.257 343.696 432.045C343.798 431.829 343.849 431.597 343.849 431.348C343.849 431.071 343.785 430.832 343.659 430.632C343.533 430.429 343.361 430.274 343.142 430.166C342.924 430.055 342.676 430 342.399 430C342.11 430 341.857 430.058 341.642 430.175C341.426 430.292 341.26 430.46 341.143 430.678C341.026 430.897 340.968 431.157 340.968 431.458H339.07C339.07 430.84 339.211 430.303 339.491 429.847C339.771 429.392 340.163 429.039 340.668 428.79C341.173 428.541 341.754 428.416 342.413 428.416C343.09 428.416 343.679 428.536 344.181 428.776C344.686 429.013 345.078 429.343 345.358 429.764C345.638 430.186 345.778 430.669 345.778 431.214C345.778 431.571 345.707 431.923 345.566 432.271C345.427 432.619 345.18 433.005 344.823 433.43C344.466 433.851 343.962 434.358 343.313 434.949L341.933 436.301V436.366H345.903V438H339.163ZM351.064 438.129C350.412 438.129 349.83 438.009 349.319 437.769C348.812 437.529 348.408 437.198 348.11 436.777C347.811 436.355 347.656 435.872 347.644 435.327H349.583C349.604 435.693 349.758 435.99 350.044 436.218C350.33 436.446 350.67 436.56 351.064 436.56C351.378 436.56 351.655 436.49 351.895 436.352C352.139 436.21 352.328 436.015 352.463 435.766C352.602 435.513 352.671 435.224 352.671 434.898C352.671 434.565 352.6 434.273 352.459 434.021C352.32 433.768 352.128 433.571 351.882 433.43C351.635 433.288 351.354 433.216 351.037 433.213C350.76 433.213 350.49 433.27 350.229 433.384C349.97 433.497 349.769 433.653 349.624 433.85L347.847 433.531L348.295 428.545H354.074V430.18H349.943L349.698 432.548H349.753C349.92 432.314 350.17 432.12 350.506 431.966C350.841 431.812 351.217 431.735 351.632 431.735C352.202 431.735 352.709 431.869 353.156 432.137C353.602 432.405 353.954 432.773 354.213 433.24C354.471 433.705 354.599 434.241 354.596 434.847C354.599 435.484 354.451 436.05 354.153 436.546C353.857 437.038 353.443 437.426 352.911 437.709C352.382 437.989 351.766 438.129 351.064 438.129Z" fill="black"/>
<path d="M591 416H716" stroke="#F42500"/>
<path d="M591 413V419" stroke="#F42500"/>
<path d="M716 413V419" stroke="#F42500"/>
<rect x="637.5" y="423" width="32" height="20" rx="3.5" fill="#D3D3D3"/>
<path d="M646.656 428.545V438H644.657V430.443H644.601L642.436 431.8V430.027L644.777 428.545H646.656ZM649.163 438V436.56L652.528 433.444C652.814 433.167 653.055 432.917 653.248 432.696C653.445 432.474 653.595 432.257 653.696 432.045C653.798 431.829 653.849 431.597 653.849 431.348C653.849 431.071 653.785 430.832 653.659 430.632C653.533 430.429 653.361 430.274 653.142 430.166C652.924 430.055 652.676 430 652.399 430C652.11 430 651.857 430.058 651.642 430.175C651.426 430.292 651.26 430.46 651.143 430.678C651.026 430.897 650.968 431.157 650.968 431.458H649.07C649.07 430.84 649.211 430.303 649.491 429.847C649.771 429.392 650.163 429.039 650.668 428.79C651.173 428.541 651.754 428.416 652.413 428.416C653.09 428.416 653.679 428.536 654.181 428.776C654.686 429.013 655.078 429.343 655.358 429.764C655.638 430.186 655.778 430.669 655.778 431.214C655.778 431.571 655.707 431.923 655.566 432.271C655.427 432.619 655.18 433.005 654.823 433.43C654.466 433.851 653.962 434.358 653.313 434.949L651.933 436.301V436.366H655.903V438H649.163ZM661.064 438.129C660.412 438.129 659.83 438.009 659.319 437.769C658.812 437.529 658.408 437.198 658.11 436.777C657.811 436.355 657.656 435.872 657.644 435.327H659.583C659.604 435.693 659.758 435.99 660.044 436.218C660.33 436.446 660.67 436.56 661.064 436.56C661.378 436.56 661.655 436.49 661.895 436.352C662.139 436.21 662.328 436.015 662.463 435.766C662.602 435.513 662.671 435.224 662.671 434.898C662.671 434.565 662.6 434.273 662.459 434.021C662.32 433.768 662.128 433.571 661.882 433.43C661.635 433.288 661.354 433.216 661.037 433.213C660.76 433.213 660.49 433.27 660.229 433.384C659.97 433.497 659.769 433.653 659.624 433.85L657.847 433.531L658.295 428.545H664.074V430.18H659.943L659.698 432.548H659.753C659.92 432.314 660.17 432.12 660.506 431.966C660.841 431.812 661.217 431.735 661.632 431.735C662.202 431.735 662.709 431.869 663.156 432.137C663.602 432.405 663.954 432.773 664.213 433.24C664.471 433.705 664.599 434.241 664.596 434.847C664.599 435.484 664.451 436.05 664.153 436.546C663.857 437.038 663.443 437.426 662.911 437.709C662.382 437.989 661.766 438.129 661.064 438.129Z" fill="black"/>
</svg>
