<svg width="1000" height="700" viewBox="0 0 1000 700" fill="none" xmlns="http://www.w3.org/2000/svg">
<rect width="1000" height="700" fill="#F2F2F2"/>
<path d="M717 350V140C717 140 654.5 49.9999 499.5 49.9999C344.5 49.9999 282 140 282 140V350H717Z" fill="white"/>
<path d="M717 140H720C720 139.388 719.813 138.791 719.464 138.289L717 140ZM717 350V353C718.657 353 720 351.657 720 350H717ZM282 350H279C279 351.657 280.343 353 282 353V350ZM282 140L279.536 138.289C279.187 138.791 279 139.388 279 140H282ZM714 140V350H720V140H714ZM717 347H282V353H717V347ZM285 350V140H279V350H285ZM282 140C284.464 141.711 284.463 141.712 284.463 141.713C284.463 141.713 284.463 141.713 284.463 141.713C284.464 141.712 284.465 141.71 284.468 141.706C284.473 141.699 284.482 141.686 284.494 141.668C284.52 141.633 284.56 141.576 284.616 141.498C284.728 141.343 284.902 141.106 285.138 140.792C285.61 140.164 286.332 139.229 287.311 138.032C289.27 135.636 292.256 132.188 296.329 128.039C304.474 119.74 316.959 108.637 334.247 97.5235C368.801 75.3106 422.618 52.9999 499.5 52.9999V46.9999C421.382 46.9999 366.449 69.6893 331.003 92.4764C313.291 103.862 300.463 115.26 292.046 123.836C287.838 128.124 284.73 131.708 282.666 134.234C281.633 135.497 280.861 136.496 280.342 137.186C280.082 137.532 279.886 137.8 279.752 137.985C279.685 138.078 279.634 138.15 279.598 138.201C279.58 138.226 279.565 138.247 279.555 138.261C279.55 138.269 279.546 138.274 279.543 138.279C279.541 138.281 279.539 138.284 279.539 138.285C279.537 138.287 279.536 138.289 282 140ZM499.5 52.9999C576.382 52.9999 630.199 75.3106 664.753 97.5235C682.041 108.637 694.526 119.74 702.671 128.039C706.744 132.188 709.73 135.636 711.689 138.032C712.668 139.229 713.39 140.164 713.862 140.792C714.098 141.106 714.272 141.343 714.384 141.498C714.44 141.576 714.48 141.633 714.506 141.668C714.518 141.686 714.527 141.699 714.532 141.706C714.535 141.71 714.536 141.712 714.537 141.713C714.537 141.713 714.537 141.713 714.537 141.713C714.537 141.712 714.536 141.711 717 140C719.464 138.289 719.463 138.287 719.461 138.285C719.461 138.284 719.459 138.281 719.457 138.279C719.454 138.274 719.45 138.269 719.445 138.261C719.435 138.247 719.42 138.226 719.402 138.201C719.366 138.15 719.315 138.078 719.248 137.985C719.114 137.8 718.918 137.532 718.658 137.186C718.139 136.496 717.367 135.497 716.334 134.234C714.27 131.708 711.162 128.124 706.954 123.836C698.537 115.26 685.709 103.862 667.997 92.4764C632.551 69.6893 577.618 46.9999 499.5 46.9999V52.9999Z" fill="black"/>
<path d="M125 650L875 650" stroke="black" stroke-width="12"/>
<path d="M125 350L875 350" stroke="black" stroke-width="6"/>
<path d="M407 325V375" stroke="black" stroke-width="6"/>
<path d="M282 335V365" stroke="black" stroke-width="6"/>
<path d="M592 325V375" stroke="black" stroke-width="6"/>
<path d="M717 335V365" stroke="black" stroke-width="6"/>
<rect x="282" y="49.9999" width="435" height="300" stroke="#F42500" stroke-dasharray="1 1"/>
<path d="M275 49.9999V350" stroke="#F42500"/>
<path d="M272 49.9999H278" stroke="#F42500"/>
<path d="M272 350H278" stroke="#F42500"/>
<rect x="240" y="190" width="28" height="20" rx="3.5" fill="#F42500"/>
<path d="M246.799 204.109C246.263 204.109 245.784 204.017 245.362 203.832C244.942 203.647 244.61 203.391 244.366 203.062C244.123 202.732 243.993 202.349 243.975 201.914H245.202C245.217 202.151 245.297 202.357 245.44 202.531C245.586 202.703 245.776 202.836 246.01 202.93C246.244 203.023 246.505 203.07 246.791 203.07C247.106 203.07 247.385 203.016 247.627 202.906C247.872 202.797 248.064 202.644 248.202 202.449C248.34 202.251 248.409 202.023 248.409 201.766C248.409 201.497 248.34 201.262 248.202 201.059C248.066 200.853 247.867 200.691 247.604 200.574C247.343 200.457 247.028 200.398 246.659 200.398H245.983V199.414H246.659C246.955 199.414 247.216 199.361 247.44 199.254C247.666 199.147 247.843 198.999 247.971 198.809C248.099 198.616 248.162 198.391 248.162 198.133C248.162 197.885 248.106 197.671 247.994 197.488C247.885 197.303 247.729 197.159 247.526 197.055C247.325 196.95 247.088 196.898 246.815 196.898C246.554 196.898 246.311 196.947 246.084 197.043C245.86 197.137 245.678 197.272 245.537 197.449C245.397 197.624 245.321 197.833 245.311 198.078H244.143C244.156 197.646 244.284 197.266 244.526 196.937C244.771 196.609 245.093 196.353 245.494 196.168C245.896 195.983 246.341 195.891 246.83 195.891C247.343 195.891 247.786 195.991 248.159 196.191C248.534 196.389 248.823 196.654 249.026 196.984C249.231 197.315 249.333 197.677 249.33 198.07C249.333 198.518 249.208 198.898 248.955 199.211C248.705 199.523 248.372 199.733 247.955 199.84V199.902C248.487 199.983 248.898 200.194 249.19 200.535C249.484 200.876 249.63 201.299 249.627 201.805C249.63 202.245 249.508 202.639 249.26 202.988C249.015 203.337 248.681 203.612 248.256 203.812C247.832 204.01 247.346 204.109 246.799 204.109ZM253.999 204.133C253.382 204.13 252.854 203.967 252.417 203.644C251.979 203.322 251.645 202.852 251.413 202.234C251.181 201.617 251.065 200.874 251.065 200.004C251.065 199.137 251.181 198.396 251.413 197.781C251.647 197.167 251.983 196.698 252.421 196.375C252.861 196.052 253.387 195.891 253.999 195.891C254.611 195.891 255.136 196.053 255.573 196.379C256.011 196.702 256.345 197.171 256.577 197.785C256.812 198.397 256.929 199.137 256.929 200.004C256.929 200.876 256.813 201.621 256.581 202.238C256.349 202.853 256.015 203.323 255.577 203.648C255.14 203.971 254.614 204.133 253.999 204.133ZM253.999 203.09C254.541 203.09 254.964 202.825 255.269 202.297C255.576 201.768 255.729 201.004 255.729 200.004C255.729 199.34 255.659 198.779 255.519 198.32C255.381 197.859 255.181 197.51 254.921 197.273C254.663 197.034 254.356 196.914 253.999 196.914C253.46 196.914 253.037 197.18 252.729 197.711C252.422 198.242 252.267 199.006 252.265 200.004C252.265 200.671 252.334 201.234 252.472 201.695C252.612 202.154 252.812 202.501 253.069 202.738C253.327 202.973 253.637 203.09 253.999 203.09ZM261.21 204.133C260.592 204.13 260.065 203.967 259.628 203.644C259.19 203.322 258.855 202.852 258.624 202.234C258.392 201.617 258.276 200.874 258.276 200.004C258.276 199.137 258.392 198.396 258.624 197.781C258.858 197.167 259.194 196.698 259.631 196.375C260.072 196.052 260.598 195.891 261.21 195.891C261.822 195.891 262.346 196.053 262.784 196.379C263.221 196.702 263.556 197.171 263.788 197.785C264.022 198.397 264.139 199.137 264.139 200.004C264.139 200.876 264.023 201.621 263.792 202.238C263.56 202.853 263.225 203.323 262.788 203.648C262.35 203.971 261.824 204.133 261.21 204.133ZM261.21 203.09C261.751 203.09 262.174 202.825 262.479 202.297C262.786 201.768 262.94 201.004 262.94 200.004C262.94 199.34 262.87 198.779 262.729 198.32C262.591 197.859 262.392 197.51 262.131 197.273C261.874 197.034 261.566 196.914 261.21 196.914C260.671 196.914 260.247 197.18 259.94 197.711C259.633 198.242 259.478 199.006 259.475 200.004C259.475 200.671 259.544 201.234 259.682 201.695C259.823 202.154 260.022 202.501 260.28 202.738C260.538 202.973 260.848 203.09 261.21 203.09Z" fill="white"/>
<rect x="282" y="49.9999" width="435" height="300" stroke="#F42500" stroke-dasharray="1 1"/>
<path d="M282 42.9999H717" stroke="#F42500"/>
<path d="M282 39.9999V45.9999" stroke="#F42500"/>
<path d="M717 39.9999V45.9999" stroke="#F42500"/>
<rect x="485.5" y="15.9999" width="28" height="20" rx="3.5" fill="#F42500"/>
<path d="M489.437 28.4374V27.4609L492.894 21.9999H493.664V23.4374H493.176L490.703 27.3515V27.414H495.441V28.4374H489.437ZM493.23 29.9999V28.1406L493.238 27.6953V21.9999H494.383V29.9999H493.23ZM499.698 30.1093C499.161 30.1093 498.682 30.0169 498.26 29.832C497.841 29.6471 497.509 29.3906 497.264 29.0624C497.022 28.7317 496.892 28.3489 496.874 27.914H498.1C498.116 28.151 498.195 28.3567 498.338 28.5312C498.484 28.7031 498.674 28.8359 498.909 28.9296C499.143 29.0234 499.403 29.0703 499.69 29.0703C500.005 29.0703 500.284 29.0156 500.526 28.9062C500.771 28.7968 500.962 28.6445 501.1 28.4492C501.238 28.2512 501.307 28.0234 501.307 27.7656C501.307 27.4973 501.238 27.2617 501.1 27.0585C500.965 26.8528 500.765 26.6913 500.502 26.5742C500.242 26.457 499.927 26.3984 499.557 26.3984H498.881V25.414H499.557C499.854 25.414 500.114 25.3606 500.338 25.2538C500.565 25.1471 500.742 24.9986 500.87 24.8085C500.997 24.6158 501.061 24.3906 501.061 24.1328C501.061 23.8854 501.005 23.6705 500.893 23.4882C500.784 23.3033 500.627 23.1588 500.424 23.0546C500.224 22.9505 499.987 22.8984 499.713 22.8984C499.453 22.8984 499.209 22.9466 498.983 23.0429C498.759 23.1367 498.577 23.2721 498.436 23.4492C498.295 23.6236 498.22 23.8333 498.209 24.0781H497.042C497.055 23.6458 497.182 23.2656 497.424 22.9374C497.669 22.6093 497.992 22.3528 498.393 22.1679C498.794 21.983 499.239 21.8906 499.729 21.8906C500.242 21.8906 500.685 21.9908 501.057 22.1913C501.432 22.3893 501.721 22.6536 501.924 22.9843C502.13 23.315 502.232 23.677 502.229 24.0703C502.232 24.5182 502.107 24.8984 501.854 25.2109C501.604 25.5234 501.271 25.733 500.854 25.8398V25.9023C501.385 25.983 501.797 26.1939 502.088 26.5351C502.383 26.8762 502.528 27.2994 502.526 27.8046C502.528 28.2447 502.406 28.6393 502.159 28.9882C501.914 29.3372 501.579 29.6119 501.155 29.8124C500.73 30.0104 500.245 30.1093 499.698 30.1093ZM506.753 30.1093C506.263 30.1093 505.823 30.0156 505.433 29.8281C505.045 29.638 504.735 29.3775 504.503 29.0468C504.271 28.7161 504.148 28.3385 504.132 27.914H505.304C505.332 28.2578 505.485 28.5403 505.761 28.7617C506.037 28.983 506.368 29.0937 506.753 29.0937C507.06 29.0937 507.332 29.0234 507.569 28.8828C507.809 28.7395 507.997 28.5429 508.132 28.2929C508.27 28.0429 508.339 27.7578 508.339 27.4374C508.339 27.1119 508.269 26.8216 508.128 26.5663C507.987 26.3111 507.793 26.1106 507.546 25.9648C507.301 25.8189 507.02 25.7447 506.702 25.7421C506.46 25.7421 506.217 25.7838 505.972 25.8671C505.727 25.9505 505.529 26.0598 505.378 26.1953L504.273 26.0312L504.722 21.9999H509.12V23.0351H505.726L505.472 25.2734H505.519C505.675 25.1223 505.882 24.996 506.14 24.8945C506.4 24.7929 506.679 24.7421 506.976 24.7421C507.463 24.7421 507.896 24.858 508.277 25.0898C508.659 25.3216 508.96 25.638 509.179 26.039C509.4 26.4374 509.51 26.8958 509.507 27.414C509.51 27.9322 509.392 28.3945 509.155 28.8007C508.921 29.207 508.596 29.5273 508.179 29.7617C507.765 29.9934 507.29 30.1093 506.753 30.1093Z" fill="white"/>
<rect x="282" y="140" width="435" height="210" stroke="#F42500" stroke-dasharray="1 1"/>
<path d="M724 140V350" stroke="#F42500"/>
<path d="M721 140H727" stroke="#F42500"/>
<path d="M721 350H727" stroke="#F42500"/>
<rect x="731" y="235" width="26" height="20" rx="3.5" fill="#F42500"/>
<path d="M735.137 249V248.125L737.844 245.32C738.133 245.016 738.371 244.749 738.558 244.52C738.749 244.288 738.89 244.068 738.984 243.859C739.078 243.651 739.125 243.43 739.125 243.195C739.125 242.93 739.062 242.701 738.937 242.508C738.812 242.313 738.642 242.163 738.426 242.059C738.209 241.952 737.966 241.898 737.695 241.898C737.409 241.898 737.159 241.957 736.945 242.074C736.732 242.191 736.568 242.357 736.453 242.57C736.338 242.784 736.281 243.034 736.281 243.32H735.129C735.129 242.833 735.241 242.408 735.465 242.043C735.689 241.678 735.996 241.396 736.387 241.195C736.777 240.992 737.221 240.891 737.719 240.891C738.221 240.891 738.664 240.991 739.047 241.191C739.432 241.389 739.733 241.66 739.949 242.004C740.165 242.345 740.273 242.73 740.273 243.16C740.273 243.457 740.217 243.747 740.105 244.031C739.996 244.315 739.805 244.632 739.531 244.98C739.258 245.327 738.877 245.747 738.39 246.242L736.801 247.906V247.965H740.402V249H735.137ZM745.028 241V249H743.817V242.211H743.77L741.856 243.461V242.305L743.852 241H745.028ZM750.087 249.133C749.47 249.13 748.943 248.967 748.505 248.645C748.068 248.322 747.733 247.852 747.501 247.234C747.269 246.617 747.153 245.874 747.153 245.004C747.153 244.137 747.269 243.396 747.501 242.781C747.735 242.167 748.071 241.698 748.509 241.375C748.949 241.052 749.475 240.891 750.087 240.891C750.699 240.891 751.224 241.053 751.661 241.379C752.099 241.702 752.433 242.171 752.665 242.785C752.9 243.397 753.017 244.137 753.017 245.004C753.017 245.876 752.901 246.621 752.669 247.238C752.437 247.853 752.103 248.323 751.665 248.648C751.228 248.971 750.702 249.133 750.087 249.133ZM750.087 248.09C750.629 248.09 751.052 247.826 751.357 247.297C751.664 246.768 751.818 246.004 751.818 245.004C751.818 244.34 751.747 243.779 751.607 243.32C751.469 242.859 751.269 242.51 751.009 242.273C750.751 242.034 750.444 241.914 750.087 241.914C749.548 241.914 749.125 242.18 748.818 242.711C748.51 243.242 748.355 244.007 748.353 245.004C748.353 245.671 748.422 246.234 748.56 246.695C748.7 247.154 748.9 247.501 749.157 247.738C749.415 247.973 749.725 248.09 750.087 248.09Z" fill="white"/>
<path d="M592 382H717" stroke="#F316B0"/>
<path d="M592 379V385" stroke="#F316B0"/>
<path d="M717 379V385" stroke="#F316B0"/>
<rect x="642" y="389" width="25" height="20" rx="3.5" fill="#F316B0"/>
<path d="M648.811 395V403H647.6V396.211H647.554L645.64 397.461V396.305L647.636 395H648.811ZM651.085 403V402.125L653.792 399.32C654.082 399.016 654.32 398.749 654.507 398.52C654.697 398.288 654.839 398.068 654.933 397.859C655.027 397.651 655.074 397.43 655.074 397.195C655.074 396.93 655.011 396.701 654.886 396.508C654.761 396.313 654.591 396.163 654.375 396.059C654.158 395.952 653.915 395.898 653.644 395.898C653.358 395.898 653.108 395.957 652.894 396.074C652.681 396.191 652.516 396.357 652.402 396.57C652.287 396.784 652.23 397.034 652.23 397.32H651.078C651.078 396.833 651.19 396.408 651.414 396.043C651.638 395.678 651.945 395.396 652.335 395.195C652.726 394.992 653.17 394.891 653.667 394.891C654.17 394.891 654.613 394.991 654.996 395.191C655.381 395.389 655.682 395.66 655.898 396.004C656.114 396.345 656.222 396.73 656.222 397.16C656.222 397.457 656.166 397.747 656.054 398.031C655.945 398.315 655.753 398.632 655.48 398.98C655.207 399.327 654.826 399.747 654.339 400.242L652.75 401.906V401.965H656.351V403H651.085ZM660.582 403.109C660.093 403.109 659.652 403.016 659.262 402.828C658.874 402.638 658.564 402.378 658.332 402.047C658.1 401.716 657.977 401.339 657.961 400.914H659.133C659.162 401.258 659.314 401.54 659.59 401.762C659.866 401.983 660.197 402.094 660.582 402.094C660.889 402.094 661.162 402.023 661.399 401.883C661.638 401.74 661.826 401.543 661.961 401.293C662.099 401.043 662.168 400.758 662.168 400.437C662.168 400.112 662.098 399.822 661.957 399.566C661.817 399.311 661.623 399.111 661.375 398.965C661.13 398.819 660.849 398.745 660.531 398.742C660.289 398.742 660.046 398.784 659.801 398.867C659.556 398.951 659.358 399.06 659.207 399.195L658.102 399.031L658.551 395H662.949V396.035H659.555L659.301 398.273H659.348C659.504 398.122 659.711 397.996 659.969 397.895C660.229 397.793 660.508 397.742 660.805 397.742C661.292 397.742 661.725 397.858 662.106 398.09C662.488 398.322 662.789 398.638 663.008 399.039C663.229 399.437 663.339 399.896 663.336 400.414C663.339 400.932 663.221 401.395 662.985 401.801C662.75 402.207 662.425 402.527 662.008 402.762C661.594 402.993 661.119 403.109 660.582 403.109Z" fill="white"/>
<path d="M282 382H407" stroke="#F316B0"/>
<path d="M282 379V385" stroke="#F316B0"/>
<path d="M407 379V385" stroke="#F316B0"/>
<rect x="332" y="389" width="25" height="20" rx="3.5" fill="#F316B0"/>
<path d="M338.811 395V403H337.6V396.211H337.554L335.64 397.461V396.305L337.636 395H338.811ZM341.085 403V402.125L343.792 399.32C344.082 399.016 344.32 398.749 344.507 398.52C344.697 398.288 344.839 398.068 344.933 397.859C345.027 397.651 345.074 397.43 345.074 397.195C345.074 396.93 345.011 396.701 344.886 396.508C344.761 396.313 344.591 396.163 344.375 396.059C344.158 395.952 343.915 395.898 343.644 395.898C343.358 395.898 343.108 395.957 342.894 396.074C342.681 396.191 342.516 396.357 342.402 396.57C342.287 396.784 342.23 397.034 342.23 397.32H341.078C341.078 396.833 341.19 396.408 341.414 396.043C341.638 395.678 341.945 395.396 342.335 395.195C342.726 394.992 343.17 394.891 343.667 394.891C344.17 394.891 344.613 394.991 344.996 395.191C345.381 395.389 345.682 395.66 345.898 396.004C346.114 396.345 346.222 396.73 346.222 397.16C346.222 397.457 346.166 397.747 346.054 398.031C345.945 398.315 345.753 398.632 345.48 398.98C345.207 399.327 344.826 399.747 344.339 400.242L342.75 401.906V401.965H346.351V403H341.085ZM350.582 403.109C350.093 403.109 349.652 403.016 349.262 402.828C348.874 402.638 348.564 402.378 348.332 402.047C348.1 401.716 347.977 401.339 347.961 400.914H349.133C349.162 401.258 349.314 401.54 349.59 401.762C349.866 401.983 350.197 402.094 350.582 402.094C350.889 402.094 351.162 402.023 351.399 401.883C351.638 401.74 351.826 401.543 351.961 401.293C352.099 401.043 352.168 400.758 352.168 400.437C352.168 400.112 352.098 399.822 351.957 399.566C351.817 399.311 351.623 399.111 351.375 398.965C351.13 398.819 350.849 398.745 350.531 398.742C350.289 398.742 350.046 398.784 349.801 398.867C349.556 398.951 349.358 399.06 349.207 399.195L348.102 399.031L348.551 395H352.949V396.035H349.555L349.301 398.273H349.348C349.504 398.122 349.711 397.996 349.969 397.895C350.229 397.793 350.508 397.742 350.805 397.742C351.292 397.742 351.725 397.858 352.106 398.09C352.488 398.322 352.789 398.638 353.008 399.039C353.229 399.437 353.339 399.896 353.336 400.414C353.339 400.932 353.221 401.395 352.985 401.801C352.75 402.207 352.425 402.527 352.008 402.762C351.594 402.993 351.119 403.109 350.582 403.109Z" fill="white"/>
<path d="M407 382H592" stroke="#F316B0"/>
<path d="M407 379V385" stroke="#F316B0"/>
<path d="M592 379V385" stroke="#F316B0"/>
<rect x="486.5" y="389" width="26" height="20" rx="3.5" fill="#F316B0"/>
<path d="M493.709 395V403H492.498V396.211H492.452L490.537 397.461V396.305L492.534 395H493.709ZM498.687 403.109C498.127 403.109 497.632 403.013 497.202 402.82C496.775 402.628 496.44 402.362 496.198 402.023C495.956 401.685 495.836 401.299 495.839 400.867C495.836 400.529 495.905 400.217 496.046 399.934C496.189 399.647 496.383 399.409 496.628 399.219C496.873 399.026 497.146 398.904 497.448 398.852V398.805C497.05 398.708 496.731 398.495 496.491 398.164C496.252 397.833 496.133 397.453 496.136 397.023C496.133 396.615 496.241 396.25 496.46 395.93C496.681 395.607 496.985 395.353 497.37 395.168C497.756 394.983 498.194 394.891 498.687 394.891C499.174 394.891 499.608 394.984 499.991 395.172C500.377 395.357 500.68 395.611 500.901 395.934C501.123 396.254 501.235 396.617 501.237 397.023C501.235 397.453 501.112 397.833 500.87 398.164C500.628 398.495 500.313 398.708 499.925 398.805V398.852C500.224 398.904 500.494 399.026 500.733 399.219C500.976 399.409 501.168 399.647 501.312 399.934C501.457 400.217 501.532 400.529 501.534 400.867C501.532 401.299 501.409 401.685 501.167 402.023C500.925 402.362 500.589 402.628 500.159 402.82C499.732 403.013 499.241 403.109 498.687 403.109ZM498.687 402.121C499.017 402.121 499.304 402.066 499.546 401.957C499.788 401.845 499.976 401.69 500.108 401.492C500.241 401.292 500.309 401.057 500.312 400.789C500.309 400.51 500.236 400.264 500.093 400.051C499.952 399.837 499.761 399.669 499.519 399.547C499.276 399.424 498.999 399.363 498.687 399.363C498.371 399.363 498.091 399.424 497.847 399.547C497.602 399.669 497.409 399.837 497.269 400.051C497.128 400.264 497.059 400.51 497.062 400.789C497.059 401.057 497.123 401.292 497.253 401.492C497.386 401.69 497.575 401.845 497.819 401.957C498.064 402.066 498.353 402.121 498.687 402.121ZM498.687 398.398C498.952 398.398 499.188 398.345 499.394 398.238C499.599 398.132 499.761 397.983 499.878 397.793C499.998 397.603 500.059 397.38 500.062 397.125C500.059 396.875 499.999 396.656 499.882 396.469C499.767 396.281 499.607 396.137 499.401 396.035C499.196 395.931 498.957 395.879 498.687 395.879C498.41 395.879 498.168 395.931 497.96 396.035C497.754 396.137 497.594 396.281 497.479 396.469C497.365 396.656 497.309 396.875 497.312 397.125C497.309 397.38 497.366 397.603 497.483 397.793C497.601 397.983 497.762 398.132 497.968 398.238C498.176 398.345 498.416 398.398 498.687 398.398ZM505.684 403.109C505.195 403.109 504.755 403.016 504.364 402.828C503.976 402.638 503.666 402.378 503.434 402.047C503.202 401.716 503.079 401.339 503.063 400.914H504.235C504.264 401.258 504.416 401.54 504.692 401.762C504.968 401.983 505.299 402.094 505.684 402.094C505.992 402.094 506.264 402.023 506.501 401.883C506.74 401.74 506.928 401.543 507.063 401.293C507.201 401.043 507.27 400.758 507.27 400.437C507.27 400.112 507.2 399.822 507.059 399.566C506.919 399.311 506.725 399.111 506.477 398.965C506.232 398.819 505.951 398.745 505.633 398.742C505.391 398.742 505.148 398.784 504.903 398.867C504.658 398.951 504.46 399.06 504.309 399.195L503.204 399.031L503.653 395H508.051V396.035H504.657L504.403 398.273H504.45C504.606 398.122 504.813 397.996 505.071 397.895C505.331 397.793 505.61 397.742 505.907 397.742C506.394 397.742 506.827 397.858 507.208 398.09C507.59 398.322 507.891 398.638 508.11 399.039C508.331 399.437 508.441 399.896 508.438 400.414C508.441 400.932 508.324 401.395 508.087 401.801C507.852 402.207 507.527 402.527 507.11 402.762C506.696 402.993 506.221 403.109 505.684 403.109Z" fill="white"/>
<path d="M882 350V650" stroke="#F316B0"/>
<path d="M879 350H885" stroke="#F316B0"/>
<path d="M879 650H885" stroke="#F316B0"/>
<rect x="889" y="490" width="28" height="20" rx="3.5" fill="#F316B0"/>
<path d="M895.799 504.109C895.263 504.109 894.784 504.017 894.362 503.832C893.942 503.647 893.61 503.391 893.366 503.062C893.123 502.732 892.993 502.349 892.975 501.914H894.202C894.217 502.151 894.297 502.357 894.44 502.531C894.586 502.703 894.776 502.836 895.01 502.93C895.244 503.023 895.505 503.07 895.791 503.07C896.106 503.07 896.385 503.016 896.627 502.906C896.872 502.797 897.064 502.645 897.202 502.449C897.34 502.251 897.409 502.023 897.409 501.766C897.409 501.497 897.34 501.262 897.202 501.059C897.066 500.853 896.867 500.691 896.604 500.574C896.343 500.457 896.028 500.398 895.659 500.398H894.983V499.414H895.659C895.955 499.414 896.216 499.361 896.44 499.254C896.666 499.147 896.843 498.999 896.971 498.809C897.099 498.616 897.162 498.391 897.162 498.133C897.162 497.885 897.106 497.671 896.994 497.488C896.885 497.303 896.729 497.159 896.526 497.055C896.325 496.951 896.088 496.898 895.815 496.898C895.554 496.898 895.311 496.947 895.084 497.043C894.86 497.137 894.678 497.272 894.537 497.449C894.397 497.624 894.321 497.833 894.311 498.078H893.143C893.156 497.646 893.284 497.266 893.526 496.937C893.771 496.609 894.093 496.353 894.494 496.168C894.896 495.983 895.341 495.891 895.83 495.891C896.343 495.891 896.786 495.991 897.159 496.191C897.534 496.389 897.823 496.654 898.026 496.984C898.231 497.315 898.333 497.677 898.33 498.07C898.333 498.518 898.208 498.898 897.955 499.211C897.705 499.523 897.372 499.733 896.955 499.84V499.902C897.487 499.983 897.898 500.194 898.19 500.535C898.484 500.876 898.63 501.299 898.627 501.805C898.63 502.245 898.508 502.639 898.26 502.988C898.015 503.337 897.681 503.612 897.256 503.812C896.832 504.01 896.346 504.109 895.799 504.109ZM902.999 504.133C902.382 504.13 901.854 503.967 901.417 503.645C900.979 503.322 900.645 502.852 900.413 502.234C900.181 501.617 900.065 500.874 900.065 500.004C900.065 499.137 900.181 498.396 900.413 497.781C900.647 497.167 900.983 496.698 901.421 496.375C901.861 496.052 902.387 495.891 902.999 495.891C903.611 495.891 904.136 496.053 904.573 496.379C905.011 496.702 905.345 497.171 905.577 497.785C905.812 498.397 905.929 499.137 905.929 500.004C905.929 500.876 905.813 501.621 905.581 502.238C905.349 502.853 905.015 503.323 904.577 503.648C904.14 503.971 903.614 504.133 902.999 504.133ZM902.999 503.09C903.541 503.09 903.964 502.826 904.269 502.297C904.576 501.768 904.729 501.004 904.729 500.004C904.729 499.34 904.659 498.779 904.519 498.32C904.381 497.859 904.181 497.51 903.921 497.273C903.663 497.034 903.356 496.914 902.999 496.914C902.46 496.914 902.037 497.18 901.729 497.711C901.422 498.242 901.267 499.007 901.265 500.004C901.265 500.671 901.334 501.234 901.472 501.695C901.612 502.154 901.812 502.501 902.069 502.738C902.327 502.973 902.637 503.09 902.999 503.09ZM910.21 504.133C909.592 504.13 909.065 503.967 908.628 503.645C908.19 503.322 907.855 502.852 907.624 502.234C907.392 501.617 907.276 500.874 907.276 500.004C907.276 499.137 907.392 498.396 907.624 497.781C907.858 497.167 908.194 496.698 908.631 496.375C909.072 496.052 909.598 495.891 910.21 495.891C910.822 495.891 911.346 496.053 911.784 496.379C912.221 496.702 912.556 497.171 912.788 497.785C913.022 498.397 913.139 499.137 913.139 500.004C913.139 500.876 913.023 501.621 912.792 502.238C912.56 502.853 912.225 503.323 911.788 503.648C911.35 503.971 910.824 504.133 910.21 504.133ZM910.21 503.09C910.751 503.09 911.174 502.826 911.479 502.297C911.786 501.768 911.94 501.004 911.94 500.004C911.94 499.34 911.87 498.779 911.729 498.32C911.591 497.859 911.392 497.51 911.131 497.273C910.874 497.034 910.566 496.914 910.21 496.914C909.671 496.914 909.247 497.18 908.94 497.711C908.633 498.242 908.478 499.007 908.475 500.004C908.475 500.671 908.544 501.234 908.682 501.695C908.823 502.154 909.022 502.501 909.28 502.738C909.538 502.973 909.848 503.09 910.21 503.09Z" fill="white"/>
</svg>
