<svg width="1000" height="700" viewBox="0 0 1000 700" fill="none" xmlns="http://www.w3.org/2000/svg">
<rect width="1000" height="700" fill="#F2F2F2"/>
<path d="M898 368V668" stroke="#F42500"/>
<path d="M895 368H901" stroke="#F42500"/>
<path d="M895 668H901" stroke="#F42500"/>
<rect x="822" y="508" width="66" height="20" rx="3.5" fill="#D3D3D3"/>
<path d="M828.994 518.887V517.706H830.035C830.994 517.706 831.641 517.128 831.641 516.284C831.641 515.446 831.013 514.913 830.054 514.913C829.096 514.913 828.468 515.459 828.398 516.341H826.995C827.084 514.678 828.264 513.656 830.105 513.656C831.876 513.656 833.101 514.64 833.101 516.062C833.101 517.147 832.498 517.941 831.502 518.163V518.271C832.733 518.423 833.47 519.249 833.47 520.48C833.47 522.073 832.098 523.184 830.137 523.184C828.214 523.184 826.906 522.111 826.824 520.455H828.252C828.328 521.318 829.045 521.87 830.099 521.87C831.222 521.87 831.933 521.299 831.933 520.397C831.933 519.477 831.203 518.887 830.067 518.887H828.994ZM838.414 523.197C836.294 523.197 835.107 521.483 835.107 518.417C835.107 515.357 836.294 513.644 838.414 513.644C840.528 513.644 841.715 515.357 841.715 518.417C841.715 521.483 840.528 523.197 838.414 523.197ZM836.611 518.417C836.611 518.607 836.618 518.792 836.624 518.963L840.001 516.487C839.728 515.459 839.188 514.926 838.414 514.926C837.24 514.926 836.611 516.145 836.611 518.417ZM838.414 521.915C839.582 521.915 840.21 520.696 840.21 518.417C840.21 518.233 840.204 518.049 840.198 517.877L836.827 520.359C837.1 521.381 837.633 521.915 838.414 521.915ZM846.71 523.197C844.59 523.197 843.403 521.483 843.403 518.417C843.403 515.357 844.59 513.644 846.71 513.644C848.824 513.644 850.011 515.357 850.011 518.417C850.011 521.483 848.824 523.197 846.71 523.197ZM844.907 518.417C844.907 518.607 844.914 518.792 844.92 518.963L848.297 516.487C848.024 515.459 847.485 514.926 846.71 514.926C845.536 514.926 844.907 516.145 844.907 518.417ZM846.71 521.915C847.878 521.915 848.507 520.696 848.507 518.417C848.507 518.233 848.5 518.049 848.494 517.877L845.123 520.359C845.396 521.381 845.929 521.915 846.71 521.915ZM859.018 519.598H850.982V518.265H859.018V519.598ZM864.159 523V521.185H860.033V519.959L862.947 513.84H864.502L861.658 519.813V519.915H864.198V517.478H865.569V519.928H866.876V521.185H865.581V523H864.159ZM871.529 523.184C869.701 523.184 868.412 522.086 868.342 520.467H869.828C869.929 521.292 870.64 521.857 871.58 521.857C872.64 521.857 873.351 521.121 873.351 520.023C873.351 518.918 872.633 518.176 871.58 518.176C870.856 518.176 870.285 518.487 869.942 519.083H868.469L868.914 513.84H874.277V515.148H870.132L869.91 517.814H870.018C870.431 517.255 871.11 516.951 871.948 516.951C873.643 516.951 874.817 518.195 874.817 519.985C874.817 521.902 873.497 523.184 871.529 523.184ZM879.895 523.197C877.775 523.197 876.588 521.483 876.588 518.417C876.588 515.357 877.775 513.644 879.895 513.644C882.009 513.644 883.196 515.357 883.196 518.417C883.196 521.483 882.009 523.197 879.895 523.197ZM878.092 518.417C878.092 518.607 878.098 518.792 878.105 518.963L881.482 516.487C881.209 515.459 880.669 514.926 879.895 514.926C878.72 514.926 878.092 516.145 878.092 518.417ZM879.895 521.915C881.063 521.915 881.691 520.696 881.691 518.417C881.691 518.233 881.685 518.049 881.678 517.877L878.308 520.359C878.581 521.381 879.114 521.915 879.895 521.915Z" fill="black"/>
<path d="M282 353V383" stroke="black" stroke-width="6"/>
<path d="M717 353V383" stroke="black" stroke-width="6"/>
<path d="M717 368V168L592 68H407L282 168V368H717Z" fill="white"/>
<path d="M717 168H720C720 167.089 719.586 166.227 718.874 165.657L717 168ZM717 368V371C718.657 371 720 369.657 720 368H717ZM282 368H279C279 369.657 280.343 371 282 371V368ZM282 168L280.126 165.657C279.414 166.227 279 167.089 279 168H282ZM407 68V65H405.948L405.126 65.6574L407 68ZM592 68L593.874 65.6574L593.052 65H592V68ZM714 168V368H720V168H714ZM717 365H282V371H717V365ZM285 368V168H279V368H285ZM283.874 170.343L408.874 70.3426L405.126 65.6574L280.126 165.657L283.874 170.343ZM407 71H592V65H407V71ZM590.126 70.3426L715.126 170.343L718.874 165.657L593.874 65.6574L590.126 70.3426Z" fill="black"/>
<path d="M125 668L875 668" stroke="black" stroke-width="12"/>
<path d="M125 368L875 368" stroke="black" stroke-width="6"/>
<path d="M407 343V393" stroke="black" stroke-width="6"/>
<path d="M592 343V393" stroke="black" stroke-width="6"/>
<path d="M282 45H717" stroke="#F42500"/>
<path d="M282 42V48" stroke="#F42500"/>
<path d="M717 42V48" stroke="#F42500"/>
<rect x="483" y="18" width="33" height="20" rx="3.5" fill="#D3D3D3"/>
<path d="M492.067 33V31.1846H487.941V29.9595L490.855 23.8403H492.41L489.566 29.8135V29.915H492.105V27.4775H493.476V29.9277H494.784V31.1846H493.489V33H492.067ZM498.383 28.8867V27.7061H499.424C500.382 27.7061 501.03 27.1284 501.03 26.2842C501.03 25.4463 500.401 24.9131 499.443 24.9131C498.484 24.9131 497.856 25.459 497.786 26.3413H496.383C496.472 24.6782 497.653 23.6562 499.494 23.6562C501.265 23.6562 502.49 24.6401 502.49 26.062C502.49 27.1475 501.887 27.9409 500.89 28.1631V28.271C502.122 28.4233 502.858 29.2485 502.858 30.48C502.858 32.0732 501.487 33.1841 499.525 33.1841C497.602 33.1841 496.294 32.1113 496.212 30.4546H497.64C497.716 31.3179 498.434 31.8701 499.487 31.8701C500.611 31.8701 501.322 31.2988 501.322 30.3975C501.322 29.4771 500.592 28.8867 499.456 28.8867H498.383ZM507.733 33.1841C505.905 33.1841 504.616 32.0859 504.546 30.4673H506.031C506.133 31.2925 506.844 31.8574 507.783 31.8574C508.843 31.8574 509.554 31.1211 509.554 30.0229C509.554 28.9185 508.837 28.1758 507.783 28.1758C507.06 28.1758 506.489 28.4868 506.146 29.0835H504.673L505.117 23.8403H510.481V25.1479H506.336L506.114 27.814H506.222C506.635 27.2554 507.314 26.9507 508.152 26.9507C509.846 26.9507 511.021 28.1948 511.021 29.9849C511.021 31.9019 509.7 33.1841 507.733 33.1841Z" fill="black"/>
<path d="M259 68V368" stroke="#F42500"/>
<path d="M256 68H262" stroke="#F42500"/>
<path d="M256 368H262" stroke="#F42500"/>
<rect x="219" y="208" width="33" height="20" rx="3.5" fill="#D3D3D3"/>
<path d="M226.087 218.887V217.706H227.128C228.086 217.706 228.734 217.128 228.734 216.284C228.734 215.446 228.105 214.913 227.147 214.913C226.188 214.913 225.56 215.459 225.49 216.341H224.087C224.176 214.678 225.357 213.656 227.198 213.656C228.969 213.656 230.194 214.64 230.194 216.062C230.194 217.147 229.591 217.941 228.594 218.163V218.271C229.825 218.423 230.562 219.249 230.562 220.48C230.562 222.073 229.191 223.184 227.229 223.184C225.306 223.184 223.998 222.111 223.916 220.455H225.344C225.42 221.318 226.137 221.87 227.191 221.87C228.315 221.87 229.026 221.299 229.026 220.397C229.026 219.477 228.296 218.887 227.159 218.887H226.087ZM235.506 223.197C233.386 223.197 232.199 221.483 232.199 218.417C232.199 215.357 233.386 213.644 235.506 213.644C237.62 213.644 238.807 215.357 238.807 218.417C238.807 221.483 237.62 223.197 235.506 223.197ZM233.704 218.417C233.704 218.607 233.71 218.792 233.716 218.963L237.093 216.487C236.82 215.459 236.281 214.926 235.506 214.926C234.332 214.926 233.704 216.145 233.704 218.417ZM235.506 221.915C236.674 221.915 237.303 220.696 237.303 218.417C237.303 218.233 237.296 218.049 237.29 217.877L233.919 220.359C234.192 221.381 234.726 221.915 235.506 221.915ZM243.802 223.197C241.682 223.197 240.495 221.483 240.495 218.417C240.495 215.357 241.682 213.644 243.802 213.644C245.916 213.644 247.103 215.357 247.103 218.417C247.103 221.483 245.916 223.197 243.802 223.197ZM242 218.417C242 218.607 242.006 218.792 242.012 218.963L245.389 216.487C245.116 215.459 244.577 214.926 243.802 214.926C242.628 214.926 242 216.145 242 218.417ZM243.802 221.915C244.97 221.915 245.599 220.696 245.599 218.417C245.599 218.233 245.593 218.049 245.586 217.877L242.216 220.359C242.489 221.381 243.022 221.915 243.802 221.915Z" fill="black"/>
<path d="M740 168V368" stroke="#F42500"/>
<path d="M737 168H743" stroke="#F42500"/>
<path d="M737 368H743" stroke="#F42500"/>
<rect x="747" y="258" width="33" height="20" rx="3.5" fill="#D3D3D3"/>
<path d="M752.062 266.525C752.062 264.831 753.338 263.656 755.159 263.656C756.969 263.656 758.194 264.716 758.194 266.278C758.194 267.255 757.705 268.074 756.194 269.604L754.258 271.578V271.692H758.34V273H752.144V271.94L755.172 268.785C756.385 267.509 756.696 267.027 756.696 266.367C756.696 265.491 756.067 264.919 755.115 264.919C754.144 264.919 753.503 265.561 753.503 266.519V266.563H752.062V266.525ZM763.506 273.197C761.386 273.197 760.199 271.483 760.199 268.417C760.199 265.357 761.386 263.644 763.506 263.644C765.62 263.644 766.807 265.357 766.807 268.417C766.807 271.483 765.62 273.197 763.506 273.197ZM761.704 268.417C761.704 268.607 761.71 268.792 761.716 268.963L765.093 266.487C764.82 265.459 764.281 264.926 763.506 264.926C762.332 264.926 761.704 266.145 761.704 268.417ZM763.506 271.915C764.674 271.915 765.303 270.696 765.303 268.417C765.303 268.233 765.296 268.049 765.29 267.877L761.919 270.359C762.192 271.381 762.726 271.915 763.506 271.915ZM771.802 273.197C769.682 273.197 768.495 271.483 768.495 268.417C768.495 265.357 769.682 263.644 771.802 263.644C773.916 263.644 775.103 265.357 775.103 268.417C775.103 271.483 773.916 273.197 771.802 273.197ZM770 268.417C770 268.607 770.006 268.792 770.012 268.963L773.389 266.487C773.116 265.459 772.577 264.926 771.802 264.926C770.628 264.926 770 266.145 770 268.417ZM771.802 271.915C772.97 271.915 773.599 270.696 773.599 268.417C773.599 268.233 773.593 268.049 773.586 267.877L770.216 270.359C770.489 271.381 771.022 271.915 771.802 271.915Z" fill="black"/>
<path d="M406 416H591" stroke="#F42500"/>
<path d="M406 413V419" stroke="#F42500"/>
<path d="M591 413V419" stroke="#F42500"/>
<rect x="482" y="423" width="33" height="20" rx="3.5" fill="#D3D3D3"/>
<path d="M493.72 438H487.22V436.711H489.779V430.415H489.671L487.208 432.033V430.542L489.785 428.84H491.283V436.711H493.72V438ZM498.519 438.197C496.462 438.197 495.06 437.118 495.06 435.537C495.06 434.407 495.815 433.493 496.996 433.214V433.106C496.037 432.865 495.428 432.084 495.428 431.106C495.428 429.666 496.71 428.644 498.519 428.644C500.328 428.644 501.61 429.666 501.61 431.106C501.61 432.084 501.007 432.858 500.036 433.106V433.214C501.204 433.468 501.979 434.401 501.979 435.537C501.979 437.118 500.576 438.197 498.519 438.197ZM498.519 432.643C499.465 432.643 500.1 432.078 500.1 431.24C500.1 430.408 499.465 429.843 498.519 429.843C497.567 429.843 496.938 430.408 496.938 431.24C496.938 432.078 497.567 432.643 498.519 432.643ZM498.519 436.984C499.636 436.984 500.404 436.337 500.404 435.404C500.404 434.464 499.636 433.823 498.519 433.823C497.402 433.823 496.634 434.464 496.634 435.404C496.634 436.337 497.402 436.984 498.519 436.984ZM506.733 438.184C504.905 438.184 503.616 437.086 503.546 435.467H505.031C505.133 436.292 505.844 436.857 506.783 436.857C507.843 436.857 508.554 436.121 508.554 435.023C508.554 433.918 507.837 433.176 506.783 433.176C506.06 433.176 505.489 433.487 505.146 434.083H503.673L504.117 428.84H509.481V430.148H505.336L505.114 432.814H505.222C505.635 432.255 506.314 431.951 507.152 431.951C508.846 431.951 510.021 433.195 510.021 434.985C510.021 436.902 508.7 438.184 506.733 438.184Z" fill="black"/>
<path d="M281 416H406" stroke="#F42500"/>
<path d="M281 413V419" stroke="#F42500"/>
<path d="M406 413V419" stroke="#F42500"/>
<rect x="327" y="423" width="33" height="20" rx="3.5" fill="#D3D3D3"/>
<path d="M338.72 438H332.22V436.711H334.779V430.415H334.671L332.208 432.033V430.542L334.785 428.84H336.283V436.711H338.72V438ZM340.358 431.525C340.358 429.831 341.634 428.656 343.456 428.656C345.265 428.656 346.49 429.716 346.49 431.278C346.49 432.255 346.001 433.074 344.49 434.604L342.554 436.578V436.692H346.636V438H340.44V436.94L343.468 433.785C344.681 432.509 344.992 432.027 344.992 431.367C344.992 430.491 344.363 429.919 343.411 429.919C342.44 429.919 341.799 430.561 341.799 431.519V431.563H340.358V431.525ZM351.733 438.184C349.905 438.184 348.616 437.086 348.546 435.467H350.031C350.133 436.292 350.844 436.857 351.783 436.857C352.843 436.857 353.554 436.121 353.554 435.023C353.554 433.918 352.837 433.176 351.783 433.176C351.06 433.176 350.489 433.487 350.146 434.083H348.673L349.117 428.84H354.481V430.148H350.336L350.114 432.814H350.222C350.635 432.255 351.314 431.951 352.152 431.951C353.846 431.951 355.021 433.195 355.021 434.985C355.021 436.902 353.7 438.184 351.733 438.184Z" fill="black"/>
<path d="M591 416H716" stroke="#F42500"/>
<path d="M591 413V419" stroke="#F42500"/>
<path d="M716 413V419" stroke="#F42500"/>
<rect x="637" y="423" width="33" height="20" rx="3.5" fill="#D3D3D3"/>
<path d="M648.72 438H642.22V436.711H644.779V430.415H644.671L642.208 432.033V430.542L644.785 428.84H646.283V436.711H648.72V438ZM650.358 431.525C650.358 429.831 651.634 428.656 653.456 428.656C655.265 428.656 656.49 429.716 656.49 431.278C656.49 432.255 656.001 433.074 654.49 434.604L652.554 436.578V436.692H656.636V438H650.44V436.94L653.468 433.785C654.681 432.509 654.992 432.027 654.992 431.367C654.992 430.491 654.363 429.919 653.411 429.919C652.44 429.919 651.799 430.561 651.799 431.519V431.563H650.358V431.525ZM661.733 438.184C659.905 438.184 658.616 437.086 658.546 435.467H660.031C660.133 436.292 660.844 436.857 661.783 436.857C662.843 436.857 663.554 436.121 663.554 435.023C663.554 433.918 662.837 433.176 661.783 433.176C661.06 433.176 660.489 433.487 660.146 434.083H658.673L659.117 428.84H664.481V430.148H660.336L660.114 432.814H660.222C660.635 432.255 661.314 431.951 662.152 431.951C663.846 431.951 665.021 433.195 665.021 434.985C665.021 436.902 663.7 438.184 661.733 438.184Z" fill="black"/>
</svg>
