<svg width="1000" height="700" viewBox="0 0 1000 700" fill="none" xmlns="http://www.w3.org/2000/svg">
<rect width="1000" height="700" fill="#F2F2F2"/>
<path d="M283 335V365" stroke="black" stroke-width="6"/>
<path d="M718 335V365" stroke="black" stroke-width="6"/>
<path d="M718 350V150L593 50H408L283 150V350H718Z" fill="white"/>
<path d="M718 150H721C721 149.089 720.586 148.227 719.874 147.657L718 150ZM718 350V353C719.657 353 721 351.657 721 350H718ZM283 350H280C280 351.657 281.343 353 283 353V350ZM283 150L281.126 147.657C280.414 148.227 280 149.089 280 150H283ZM408 50V47H406.948L406.126 47.6574L408 50ZM593 50L594.874 47.6574L594.052 47H593V50ZM715 150V350H721V150H715ZM718 347H283V353H718V347ZM286 350V150H280V350H286ZM284.874 152.343L409.874 52.3426L406.126 47.6574L281.126 147.657L284.874 152.343ZM408 53H593V47H408V53ZM591.126 52.3426L716.126 152.343L719.874 147.657L594.874 47.6574L591.126 52.3426Z" fill="black"/>
<path d="M126 650L876 650" stroke="black" stroke-width="12"/>
<path d="M126 350L876 350" stroke="black" stroke-width="6"/>
<path d="M408 325V375" stroke="black" stroke-width="6"/>
<path d="M593 325V375" stroke="black" stroke-width="6"/>
<rect x="283" y="50" width="435" height="300" stroke="#F42500" stroke-dasharray="1 1"/>
<path d="M283 43H718" stroke="#F42500"/>
<path d="M283 40V46" stroke="#F42500"/>
<path d="M718 40V46" stroke="#F42500"/>
<rect x="486.5" y="16" width="28" height="20" rx="3.5" fill="#F42500"/>
<path d="M490.437 28.4375V27.4609L493.894 22H494.664V23.4375H494.176L491.703 27.3516V27.4141H496.441V28.4375H490.437ZM494.23 30V28.1406L494.238 27.6953V22H495.383V30H494.23ZM500.698 30.1094C500.161 30.1094 499.682 30.0169 499.26 29.832C498.841 29.6471 498.509 29.3906 498.264 29.0625C498.022 28.7318 497.892 28.349 497.874 27.9141H499.1C499.116 28.151 499.195 28.3568 499.338 28.5312C499.484 28.7031 499.674 28.8359 499.909 28.9297C500.143 29.0234 500.403 29.0703 500.69 29.0703C501.005 29.0703 501.284 29.0156 501.526 28.9062C501.771 28.7969 501.962 28.6445 502.1 28.4492C502.238 28.2513 502.307 28.0234 502.307 27.7656C502.307 27.4974 502.238 27.2617 502.1 27.0586C501.965 26.8529 501.765 26.6914 501.502 26.5742C501.242 26.457 500.927 26.3984 500.557 26.3984H499.881V25.4141H500.557C500.854 25.4141 501.114 25.3607 501.338 25.2539C501.565 25.1471 501.742 24.9987 501.87 24.8086C501.997 24.6159 502.061 24.3906 502.061 24.1328C502.061 23.8854 502.005 23.6706 501.893 23.4883C501.784 23.3034 501.627 23.1589 501.424 23.0547C501.224 22.9505 500.987 22.8984 500.713 22.8984C500.453 22.8984 500.209 22.9466 499.983 23.043C499.759 23.1367 499.577 23.2721 499.436 23.4492C499.295 23.6237 499.22 23.8333 499.209 24.0781H498.042C498.055 23.6458 498.182 23.2656 498.424 22.9375C498.669 22.6094 498.992 22.3529 499.393 22.168C499.794 21.9831 500.239 21.8906 500.729 21.8906C501.242 21.8906 501.685 21.9909 502.057 22.1914C502.432 22.3893 502.721 22.6536 502.924 22.9844C503.13 23.3151 503.232 23.6771 503.229 24.0703C503.232 24.5182 503.107 24.8984 502.854 25.2109C502.604 25.5234 502.271 25.7331 501.854 25.8398V25.9023C502.385 25.9831 502.797 26.194 503.088 26.5352C503.383 26.8763 503.528 27.2995 503.526 27.8047C503.528 28.2448 503.406 28.6393 503.159 28.9883C502.914 29.3372 502.579 29.612 502.155 29.8125C501.73 30.0104 501.245 30.1094 500.698 30.1094ZM507.753 30.1094C507.263 30.1094 506.823 30.0156 506.433 29.8281C506.045 29.638 505.735 29.3776 505.503 29.0469C505.271 28.7161 505.148 28.3385 505.132 27.9141H506.304C506.332 28.2578 506.485 28.5404 506.761 28.7617C507.037 28.9831 507.368 29.0937 507.753 29.0937C508.06 29.0937 508.332 29.0234 508.569 28.8828C508.809 28.7396 508.997 28.543 509.132 28.293C509.27 28.043 509.339 27.7578 509.339 27.4375C509.339 27.112 509.269 26.8216 509.128 26.5664C508.987 26.3112 508.793 26.1107 508.546 25.9648C508.301 25.819 508.02 25.7448 507.702 25.7422C507.46 25.7422 507.217 25.7839 506.972 25.8672C506.727 25.9505 506.529 26.0599 506.378 26.1953L505.273 26.0312L505.722 22H510.12V23.0352H506.726L506.472 25.2734H506.519C506.675 25.1224 506.882 24.9961 507.14 24.8945C507.4 24.793 507.679 24.7422 507.976 24.7422C508.463 24.7422 508.896 24.8581 509.277 25.0898C509.659 25.3216 509.96 25.638 510.179 26.0391C510.4 26.4375 510.51 26.8958 510.507 27.4141C510.51 27.9323 510.392 28.3945 510.155 28.8008C509.921 29.207 509.596 29.5273 509.179 29.7617C508.765 29.9935 508.29 30.1094 507.753 30.1094Z" fill="white"/>
<rect x="283" y="50" width="435" height="300" stroke="#F42500" stroke-dasharray="1 1"/>
<path d="M276 50V350" stroke="#F42500"/>
<path d="M273 50H279" stroke="#F42500"/>
<path d="M273 350H279" stroke="#F42500"/>
<rect x="241" y="190" width="28" height="20" rx="3.5" fill="#F42500"/>
<path d="M247.799 204.109C247.263 204.109 246.784 204.017 246.362 203.832C245.942 203.647 245.61 203.391 245.366 203.062C245.123 202.732 244.993 202.349 244.975 201.914H246.202C246.217 202.151 246.297 202.357 246.44 202.531C246.586 202.703 246.776 202.836 247.01 202.93C247.244 203.023 247.505 203.07 247.791 203.07C248.106 203.07 248.385 203.016 248.627 202.906C248.872 202.797 249.064 202.645 249.202 202.449C249.34 202.251 249.409 202.023 249.409 201.766C249.409 201.497 249.34 201.262 249.202 201.059C249.066 200.853 248.867 200.691 248.604 200.574C248.343 200.457 248.028 200.398 247.659 200.398H246.983V199.414H247.659C247.955 199.414 248.216 199.361 248.44 199.254C248.666 199.147 248.843 198.999 248.971 198.809C249.099 198.616 249.162 198.391 249.162 198.133C249.162 197.885 249.106 197.671 248.994 197.488C248.885 197.303 248.729 197.159 248.526 197.055C248.325 196.951 248.088 196.898 247.815 196.898C247.554 196.898 247.311 196.947 247.084 197.043C246.86 197.137 246.678 197.272 246.537 197.449C246.397 197.624 246.321 197.833 246.311 198.078H245.143C245.156 197.646 245.284 197.266 245.526 196.937C245.771 196.609 246.093 196.353 246.494 196.168C246.896 195.983 247.341 195.891 247.83 195.891C248.343 195.891 248.786 195.991 249.159 196.191C249.534 196.389 249.823 196.654 250.026 196.984C250.231 197.315 250.333 197.677 250.33 198.07C250.333 198.518 250.208 198.898 249.955 199.211C249.705 199.523 249.372 199.733 248.955 199.84V199.902C249.487 199.983 249.898 200.194 250.19 200.535C250.484 200.876 250.63 201.299 250.627 201.805C250.63 202.245 250.508 202.639 250.26 202.988C250.015 203.337 249.681 203.612 249.256 203.812C248.832 204.01 248.346 204.109 247.799 204.109ZM254.999 204.133C254.382 204.13 253.854 203.967 253.417 203.645C252.979 203.322 252.645 202.852 252.413 202.234C252.181 201.617 252.065 200.874 252.065 200.004C252.065 199.137 252.181 198.396 252.413 197.781C252.647 197.167 252.983 196.698 253.421 196.375C253.861 196.052 254.387 195.891 254.999 195.891C255.611 195.891 256.136 196.053 256.573 196.379C257.011 196.702 257.345 197.171 257.577 197.785C257.812 198.397 257.929 199.137 257.929 200.004C257.929 200.876 257.813 201.621 257.581 202.238C257.349 202.853 257.015 203.323 256.577 203.648C256.14 203.971 255.614 204.133 254.999 204.133ZM254.999 203.09C255.541 203.09 255.964 202.826 256.269 202.297C256.576 201.768 256.729 201.004 256.729 200.004C256.729 199.34 256.659 198.779 256.519 198.32C256.381 197.859 256.181 197.51 255.921 197.273C255.663 197.034 255.356 196.914 254.999 196.914C254.46 196.914 254.037 197.18 253.729 197.711C253.422 198.242 253.267 199.007 253.265 200.004C253.265 200.671 253.334 201.234 253.472 201.695C253.612 202.154 253.812 202.501 254.069 202.738C254.327 202.973 254.637 203.09 254.999 203.09ZM262.21 204.133C261.592 204.13 261.065 203.967 260.628 203.645C260.19 203.322 259.855 202.852 259.624 202.234C259.392 201.617 259.276 200.874 259.276 200.004C259.276 199.137 259.392 198.396 259.624 197.781C259.858 197.167 260.194 196.698 260.631 196.375C261.072 196.052 261.598 195.891 262.21 195.891C262.822 195.891 263.346 196.053 263.784 196.379C264.221 196.702 264.556 197.171 264.788 197.785C265.022 198.397 265.139 199.137 265.139 200.004C265.139 200.876 265.023 201.621 264.792 202.238C264.56 202.853 264.225 203.323 263.788 203.648C263.35 203.971 262.824 204.133 262.21 204.133ZM262.21 203.09C262.751 203.09 263.174 202.826 263.479 202.297C263.786 201.768 263.94 201.004 263.94 200.004C263.94 199.34 263.87 198.779 263.729 198.32C263.591 197.859 263.392 197.51 263.131 197.273C262.874 197.034 262.566 196.914 262.21 196.914C261.671 196.914 261.247 197.18 260.94 197.711C260.633 198.242 260.478 199.007 260.475 200.004C260.475 200.671 260.544 201.234 260.682 201.695C260.823 202.154 261.022 202.501 261.28 202.738C261.538 202.973 261.848 203.09 262.21 203.09Z" fill="white"/>
<rect x="283" y="150" width="435" height="200" stroke="#F42500" stroke-dasharray="1 1"/>
<path d="M725 150V350" stroke="#F42500"/>
<path d="M722 150H728" stroke="#F42500"/>
<path d="M722 350H728" stroke="#F42500"/>
<rect x="732" y="240" width="28" height="20" rx="3.5" fill="#F42500"/>
<path d="M736.186 254V253.125L738.893 250.32C739.182 250.016 739.42 249.749 739.608 249.52C739.798 249.288 739.94 249.068 740.034 248.859C740.127 248.651 740.174 248.43 740.174 248.195C740.174 247.93 740.112 247.701 739.987 247.508C739.862 247.313 739.691 247.163 739.475 247.059C739.259 246.952 739.015 246.898 738.744 246.898C738.458 246.898 738.208 246.957 737.994 247.074C737.781 247.191 737.617 247.357 737.502 247.57C737.388 247.784 737.33 248.034 737.33 248.32H736.178C736.178 247.833 736.29 247.408 736.514 247.043C736.738 246.678 737.045 246.396 737.436 246.195C737.827 245.992 738.271 245.891 738.768 245.891C739.271 245.891 739.713 245.991 740.096 246.191C740.481 246.389 740.782 246.66 740.998 247.004C741.215 247.345 741.323 247.73 741.323 248.16C741.323 248.457 741.267 248.747 741.155 249.031C741.045 249.315 740.854 249.632 740.58 249.98C740.307 250.327 739.927 250.747 739.44 251.242L737.85 252.906V252.965H741.452V254H736.186ZM745.827 254.133C745.21 254.13 744.683 253.967 744.245 253.645C743.808 253.322 743.473 252.852 743.241 252.234C743.009 251.617 742.894 250.874 742.894 250.004C742.894 249.137 743.009 248.396 743.241 247.781C743.476 247.167 743.812 246.698 744.249 246.375C744.689 246.052 745.215 245.891 745.827 245.891C746.439 245.891 746.964 246.053 747.401 246.379C747.839 246.702 748.174 247.171 748.405 247.785C748.64 248.397 748.757 249.137 748.757 250.004C748.757 250.876 748.641 251.621 748.409 252.238C748.177 252.853 747.843 253.323 747.405 253.648C746.968 253.971 746.442 254.133 745.827 254.133ZM745.827 253.09C746.369 253.09 746.792 252.826 747.097 252.297C747.404 251.768 747.558 251.004 747.558 250.004C747.558 249.34 747.487 248.779 747.347 248.32C747.209 247.859 747.009 247.51 746.749 247.273C746.491 247.034 746.184 246.914 745.827 246.914C745.288 246.914 744.865 247.18 744.558 247.711C744.25 248.242 744.095 249.007 744.093 250.004C744.093 250.671 744.162 251.234 744.3 251.695C744.44 252.154 744.64 252.501 744.897 252.738C745.155 252.973 745.465 253.09 745.827 253.09ZM753.038 254.133C752.421 254.13 751.893 253.967 751.456 253.645C751.018 253.322 750.684 252.852 750.452 252.234C750.22 251.617 750.104 250.874 750.104 250.004C750.104 249.137 750.22 248.396 750.452 247.781C750.686 247.167 751.022 246.698 751.46 246.375C751.9 246.052 752.426 245.891 753.038 245.891C753.65 245.891 754.174 246.053 754.612 246.379C755.049 246.702 755.384 247.171 755.616 247.785C755.85 248.397 755.967 249.137 755.967 250.004C755.967 250.876 755.852 251.621 755.62 252.238C755.388 252.853 755.053 253.323 754.616 253.648C754.178 253.971 753.652 254.133 753.038 254.133ZM753.038 253.09C753.579 253.09 754.003 252.826 754.307 252.297C754.615 251.768 754.768 251.004 754.768 250.004C754.768 249.34 754.698 248.779 754.557 248.32C754.419 247.859 754.22 247.51 753.96 247.273C753.702 247.034 753.395 246.914 753.038 246.914C752.499 246.914 752.075 247.18 751.768 247.711C751.461 248.242 751.306 249.007 751.303 250.004C751.303 250.671 751.372 251.234 751.51 251.695C751.651 252.154 751.85 252.501 752.108 252.738C752.366 252.973 752.676 253.09 753.038 253.09Z" fill="white"/>
<path d="M407 382H592" stroke="#F316B0"/>
<path d="M407 379V385" stroke="#F316B0"/>
<path d="M592 379V385" stroke="#F316B0"/>
<rect x="486.5" y="389" width="26" height="20" rx="3.5" fill="#F316B0"/>
<path d="M493.709 395V403H492.498V396.211H492.452L490.537 397.461V396.305L492.534 395H493.709ZM498.687 403.109C498.127 403.109 497.632 403.013 497.202 402.82C496.775 402.628 496.44 402.362 496.198 402.023C495.956 401.685 495.836 401.299 495.839 400.867C495.836 400.529 495.905 400.217 496.046 399.934C496.189 399.647 496.383 399.409 496.628 399.219C496.873 399.026 497.146 398.904 497.448 398.852V398.805C497.05 398.708 496.731 398.495 496.491 398.164C496.252 397.833 496.133 397.453 496.136 397.023C496.133 396.615 496.241 396.25 496.46 395.93C496.681 395.607 496.985 395.353 497.37 395.168C497.756 394.983 498.194 394.891 498.687 394.891C499.174 394.891 499.608 394.984 499.991 395.172C500.377 395.357 500.68 395.611 500.901 395.934C501.123 396.254 501.235 396.617 501.237 397.023C501.235 397.453 501.112 397.833 500.87 398.164C500.628 398.495 500.313 398.708 499.925 398.805V398.852C500.224 398.904 500.494 399.026 500.733 399.219C500.976 399.409 501.168 399.647 501.312 399.934C501.457 400.217 501.532 400.529 501.534 400.867C501.532 401.299 501.409 401.685 501.167 402.023C500.925 402.362 500.589 402.628 500.159 402.82C499.732 403.013 499.241 403.109 498.687 403.109ZM498.687 402.121C499.017 402.121 499.304 402.066 499.546 401.957C499.788 401.845 499.976 401.69 500.108 401.492C500.241 401.292 500.309 401.057 500.312 400.789C500.309 400.51 500.236 400.264 500.093 400.051C499.952 399.837 499.761 399.669 499.519 399.547C499.276 399.424 498.999 399.363 498.687 399.363C498.371 399.363 498.091 399.424 497.847 399.547C497.602 399.669 497.409 399.837 497.269 400.051C497.128 400.264 497.059 400.51 497.062 400.789C497.059 401.057 497.123 401.292 497.253 401.492C497.386 401.69 497.575 401.845 497.819 401.957C498.064 402.066 498.353 402.121 498.687 402.121ZM498.687 398.398C498.952 398.398 499.188 398.345 499.394 398.238C499.599 398.132 499.761 397.983 499.878 397.793C499.998 397.603 500.059 397.38 500.062 397.125C500.059 396.875 499.999 396.656 499.882 396.469C499.767 396.281 499.607 396.137 499.401 396.035C499.196 395.931 498.957 395.879 498.687 395.879C498.41 395.879 498.168 395.931 497.96 396.035C497.754 396.137 497.594 396.281 497.479 396.469C497.365 396.656 497.309 396.875 497.312 397.125C497.309 397.38 497.366 397.603 497.483 397.793C497.601 397.983 497.762 398.132 497.968 398.238C498.176 398.345 498.416 398.398 498.687 398.398ZM505.684 403.109C505.195 403.109 504.755 403.016 504.364 402.828C503.976 402.638 503.666 402.378 503.434 402.047C503.202 401.716 503.079 401.339 503.063 400.914H504.235C504.264 401.258 504.416 401.54 504.692 401.762C504.968 401.983 505.299 402.094 505.684 402.094C505.992 402.094 506.264 402.023 506.501 401.883C506.74 401.74 506.928 401.543 507.063 401.293C507.201 401.043 507.27 400.758 507.27 400.437C507.27 400.112 507.2 399.822 507.059 399.566C506.919 399.311 506.725 399.111 506.477 398.965C506.232 398.819 505.951 398.745 505.633 398.742C505.391 398.742 505.148 398.784 504.903 398.867C504.658 398.951 504.46 399.06 504.309 399.195L503.204 399.031L503.653 395H508.051V396.035H504.657L504.403 398.273H504.45C504.606 398.122 504.813 397.996 505.071 397.895C505.331 397.793 505.61 397.742 505.907 397.742C506.394 397.742 506.827 397.858 507.208 398.09C507.59 398.322 507.891 398.638 508.11 399.039C508.331 399.437 508.441 399.896 508.438 400.414C508.441 400.932 508.324 401.395 508.087 401.801C507.852 402.207 507.527 402.527 507.11 402.762C506.696 402.993 506.221 403.109 505.684 403.109Z" fill="white"/>
<path d="M282 382H407" stroke="#F316B0"/>
<path d="M282 379V385" stroke="#F316B0"/>
<path d="M407 379V385" stroke="#F316B0"/>
<rect x="332" y="389" width="25" height="20" rx="3.5" fill="#F316B0"/>
<path d="M338.811 395V403H337.6V396.211H337.554L335.64 397.461V396.305L337.636 395H338.811ZM341.085 403V402.125L343.792 399.32C344.082 399.016 344.32 398.749 344.507 398.52C344.697 398.288 344.839 398.068 344.933 397.859C345.027 397.651 345.074 397.43 345.074 397.195C345.074 396.93 345.011 396.701 344.886 396.508C344.761 396.313 344.591 396.163 344.375 396.059C344.158 395.952 343.915 395.898 343.644 395.898C343.358 395.898 343.108 395.957 342.894 396.074C342.681 396.191 342.516 396.357 342.402 396.57C342.287 396.784 342.23 397.034 342.23 397.32H341.078C341.078 396.833 341.19 396.408 341.414 396.043C341.638 395.678 341.945 395.396 342.335 395.195C342.726 394.992 343.17 394.891 343.667 394.891C344.17 394.891 344.613 394.991 344.996 395.191C345.381 395.389 345.682 395.66 345.898 396.004C346.114 396.345 346.222 396.73 346.222 397.16C346.222 397.457 346.166 397.747 346.054 398.031C345.945 398.315 345.753 398.632 345.48 398.98C345.207 399.327 344.826 399.747 344.339 400.242L342.75 401.906V401.965H346.351V403H341.085ZM350.582 403.109C350.093 403.109 349.652 403.016 349.262 402.828C348.874 402.638 348.564 402.378 348.332 402.047C348.1 401.716 347.977 401.339 347.961 400.914H349.133C349.162 401.258 349.314 401.54 349.59 401.762C349.866 401.983 350.197 402.094 350.582 402.094C350.889 402.094 351.162 402.023 351.399 401.883C351.638 401.74 351.826 401.543 351.961 401.293C352.099 401.043 352.168 400.758 352.168 400.437C352.168 400.112 352.098 399.822 351.957 399.566C351.817 399.311 351.623 399.111 351.375 398.965C351.13 398.819 350.849 398.745 350.531 398.742C350.289 398.742 350.046 398.784 349.801 398.867C349.556 398.951 349.358 399.06 349.207 399.195L348.102 399.031L348.551 395H352.949V396.035H349.555L349.301 398.273H349.348C349.504 398.122 349.711 397.996 349.969 397.895C350.229 397.793 350.508 397.742 350.805 397.742C351.292 397.742 351.725 397.858 352.106 398.09C352.488 398.322 352.789 398.638 353.008 399.039C353.229 399.437 353.339 399.896 353.336 400.414C353.339 400.932 353.221 401.395 352.985 401.801C352.75 402.207 352.425 402.527 352.008 402.762C351.594 402.993 351.119 403.109 350.582 403.109Z" fill="white"/>
<path d="M592 382H717" stroke="#F316B0"/>
<path d="M592 379V385" stroke="#F316B0"/>
<path d="M717 379V385" stroke="#F316B0"/>
<rect x="642" y="389" width="25" height="20" rx="3.5" fill="#F316B0"/>
<path d="M648.811 395V403H647.6V396.211H647.554L645.64 397.461V396.305L647.636 395H648.811ZM651.085 403V402.125L653.792 399.32C654.082 399.016 654.32 398.749 654.507 398.52C654.697 398.288 654.839 398.068 654.933 397.859C655.027 397.651 655.074 397.43 655.074 397.195C655.074 396.93 655.011 396.701 654.886 396.508C654.761 396.313 654.591 396.163 654.375 396.059C654.158 395.952 653.915 395.898 653.644 395.898C653.358 395.898 653.108 395.957 652.894 396.074C652.681 396.191 652.516 396.357 652.402 396.57C652.287 396.784 652.23 397.034 652.23 397.32H651.078C651.078 396.833 651.19 396.408 651.414 396.043C651.638 395.678 651.945 395.396 652.335 395.195C652.726 394.992 653.17 394.891 653.667 394.891C654.17 394.891 654.613 394.991 654.996 395.191C655.381 395.389 655.682 395.66 655.898 396.004C656.114 396.345 656.222 396.73 656.222 397.16C656.222 397.457 656.166 397.747 656.054 398.031C655.945 398.315 655.753 398.632 655.48 398.98C655.207 399.327 654.826 399.747 654.339 400.242L652.75 401.906V401.965H656.351V403H651.085ZM660.582 403.109C660.093 403.109 659.652 403.016 659.262 402.828C658.874 402.638 658.564 402.378 658.332 402.047C658.1 401.716 657.977 401.339 657.961 400.914H659.133C659.162 401.258 659.314 401.54 659.59 401.762C659.866 401.983 660.197 402.094 660.582 402.094C660.889 402.094 661.162 402.023 661.399 401.883C661.638 401.74 661.826 401.543 661.961 401.293C662.099 401.043 662.168 400.758 662.168 400.437C662.168 400.112 662.098 399.822 661.957 399.566C661.817 399.311 661.623 399.111 661.375 398.965C661.13 398.819 660.849 398.745 660.531 398.742C660.289 398.742 660.046 398.784 659.801 398.867C659.556 398.951 659.358 399.06 659.207 399.195L658.102 399.031L658.551 395H662.949V396.035H659.555L659.301 398.273H659.348C659.504 398.122 659.711 397.996 659.969 397.895C660.229 397.793 660.508 397.742 660.805 397.742C661.292 397.742 661.725 397.858 662.106 398.09C662.488 398.322 662.789 398.638 663.008 399.039C663.229 399.437 663.339 399.896 663.336 400.414C663.339 400.932 663.221 401.395 662.985 401.801C662.75 402.207 662.425 402.527 662.008 402.762C661.594 402.993 661.119 403.109 660.582 403.109Z" fill="white"/>
<path d="M883 350V650" stroke="#F316B0"/>
<path d="M880 350H886" stroke="#F316B0"/>
<path d="M880 650H886" stroke="#F316B0"/>
<rect x="890" y="490" width="28" height="20" rx="3.5" fill="#F316B0"/>
<path d="M896.799 504.109C896.263 504.109 895.784 504.017 895.362 503.832C894.942 503.647 894.61 503.391 894.366 503.062C894.123 502.732 893.993 502.349 893.975 501.914H895.202C895.217 502.151 895.297 502.357 895.44 502.531C895.586 502.703 895.776 502.836 896.01 502.93C896.244 503.023 896.505 503.07 896.791 503.07C897.106 503.07 897.385 503.016 897.627 502.906C897.872 502.797 898.064 502.645 898.202 502.449C898.34 502.251 898.409 502.023 898.409 501.766C898.409 501.497 898.34 501.262 898.202 501.059C898.066 500.853 897.867 500.691 897.604 500.574C897.343 500.457 897.028 500.398 896.659 500.398H895.983V499.414H896.659C896.955 499.414 897.216 499.361 897.44 499.254C897.666 499.147 897.843 498.999 897.971 498.809C898.099 498.616 898.162 498.391 898.162 498.133C898.162 497.885 898.106 497.671 897.994 497.488C897.885 497.303 897.729 497.159 897.526 497.055C897.325 496.951 897.088 496.898 896.815 496.898C896.554 496.898 896.311 496.947 896.084 497.043C895.86 497.137 895.678 497.272 895.537 497.449C895.397 497.624 895.321 497.833 895.311 498.078H894.143C894.156 497.646 894.284 497.266 894.526 496.937C894.771 496.609 895.093 496.353 895.494 496.168C895.896 495.983 896.341 495.891 896.83 495.891C897.343 495.891 897.786 495.991 898.159 496.191C898.534 496.389 898.823 496.654 899.026 496.984C899.231 497.315 899.333 497.677 899.33 498.07C899.333 498.518 899.208 498.898 898.955 499.211C898.705 499.523 898.372 499.733 897.955 499.84V499.902C898.487 499.983 898.898 500.194 899.19 500.535C899.484 500.876 899.63 501.299 899.627 501.805C899.63 502.245 899.508 502.639 899.26 502.988C899.015 503.337 898.681 503.612 898.256 503.812C897.832 504.01 897.346 504.109 896.799 504.109ZM903.999 504.133C903.382 504.13 902.854 503.967 902.417 503.645C901.979 503.322 901.645 502.852 901.413 502.234C901.181 501.617 901.065 500.874 901.065 500.004C901.065 499.137 901.181 498.396 901.413 497.781C901.647 497.167 901.983 496.698 902.421 496.375C902.861 496.052 903.387 495.891 903.999 495.891C904.611 495.891 905.136 496.053 905.573 496.379C906.011 496.702 906.345 497.171 906.577 497.785C906.812 498.397 906.929 499.137 906.929 500.004C906.929 500.876 906.813 501.621 906.581 502.238C906.349 502.853 906.015 503.323 905.577 503.648C905.14 503.971 904.614 504.133 903.999 504.133ZM903.999 503.09C904.541 503.09 904.964 502.826 905.269 502.297C905.576 501.768 905.729 501.004 905.729 500.004C905.729 499.34 905.659 498.779 905.519 498.32C905.381 497.859 905.181 497.51 904.921 497.273C904.663 497.034 904.356 496.914 903.999 496.914C903.46 496.914 903.037 497.18 902.729 497.711C902.422 498.242 902.267 499.007 902.265 500.004C902.265 500.671 902.334 501.234 902.472 501.695C902.612 502.154 902.812 502.501 903.069 502.738C903.327 502.973 903.637 503.09 903.999 503.09ZM911.21 504.133C910.592 504.13 910.065 503.967 909.628 503.645C909.19 503.322 908.855 502.852 908.624 502.234C908.392 501.617 908.276 500.874 908.276 500.004C908.276 499.137 908.392 498.396 908.624 497.781C908.858 497.167 909.194 496.698 909.631 496.375C910.072 496.052 910.598 495.891 911.21 495.891C911.822 495.891 912.346 496.053 912.784 496.379C913.221 496.702 913.556 497.171 913.788 497.785C914.022 498.397 914.139 499.137 914.139 500.004C914.139 500.876 914.023 501.621 913.792 502.238C913.56 502.853 913.225 503.323 912.788 503.648C912.35 503.971 911.824 504.133 911.21 504.133ZM911.21 503.09C911.751 503.09 912.174 502.826 912.479 502.297C912.786 501.768 912.94 501.004 912.94 500.004C912.94 499.34 912.87 498.779 912.729 498.32C912.591 497.859 912.392 497.51 912.131 497.273C911.874 497.034 911.566 496.914 911.21 496.914C910.671 496.914 910.247 497.18 909.94 497.711C909.633 498.242 909.478 499.007 909.475 500.004C909.475 500.671 909.544 501.234 909.682 501.695C909.823 502.154 910.022 502.501 910.28 502.738C910.538 502.973 910.848 503.09 911.21 503.09Z" fill="white"/>
</svg>
